<?xml version="1.0" encoding="utf-8"?>
<!-- Generator: Adobe Illustrator 16.0.0, SVG Export Plug-In . SVG Version: 6.00 Build 0)  -->
<!DOCTYPE svg PUBLIC "-//W3C//DTD SVG 1.1//EN" "http://www.w3.org/Graphics/SVG/1.1/DTD/svg11.dtd">
<svg version="1.1" id="Layer_1" xmlns="http://www.w3.org/2000/svg" xmlns:xlink="http://www.w3.org/1999/xlink" x="0px" y="0px"
	 width="128px" height="128px" viewBox="0 0 128 128" enable-background="new 0 0 128 128" xml:space="preserve">
<g>
	<g>
		<path fill="#282D33" d="M116.646,56.252H11.351l0.097-2.088C12.735,26.307,35.819,4.485,64,4.485
			c28.18,0,51.264,21.821,52.551,49.678L116.646,56.252z M15.578,52.26h96.842C110.209,27.544,89.334,8.478,64,8.478
			C38.665,8.478,17.79,27.544,15.578,52.26z"/>
	</g>
	<g>
		<g>
			<path fill="#282D33" d="M99.604,48.64c-2.107-9.755-7.57-18.675-15.389-25.116l2.541-3.081
				c8.504,7.01,14.455,16.724,16.75,27.354L99.604,48.64z"/>
		</g>
	</g>
	<g>
		<path fill="#282D33" d="M117.174,66.565H10.821c-2.451,0-4.163-2.883-4.163-7.01c0-4.139,1.712-7.029,4.163-7.029h106.353
			c2.455,0,4.168,2.89,4.168,7.029C121.342,63.683,119.629,66.565,117.174,66.565z M11.25,62.573h105.492
			c0.236-0.416,0.607-1.449,0.607-3.017c0-1.586-0.369-2.623-0.604-3.037h-105.5c-0.232,0.413-0.596,1.449-0.596,3.037
			C10.65,61.126,11.016,62.158,11.25,62.573z"/>
	</g>
	<g>
		<path fill="#282D33" d="M35.502,113.492c-0.292-0.399-7.081-9.89-2.079-21.773c2.37-5.628,0.836-19.486-0.09-23.938l-0.676-0.526
			l-0.005-0.984c0-0.526,0-1.922,1.321-2.467l1.236-0.509l0.686,0.67c1.95-0.397,5.143-0.718,7.808,1.1
			c2.079,1.417,3.345,3.796,3.764,7.072c1.277,9.956,3.871,13.198,5.823,14.163c1.682,0.832,3.931,0.45,6.684-1.141l1.997,3.456
			c-3.982,2.301-7.499,2.726-10.453,1.264c-4.167-2.064-6.788-7.7-8.011-17.235c-0.268-2.096-0.959-3.534-2.053-4.28
			c-1.189-0.812-2.818-0.786-4.104-0.599c1.304,6.407,2.223,19.635-0.248,25.504c-4.135,9.821,1.563,17.785,1.621,17.864
			L35.502,113.492z"/>
	</g>
	<g>
		<path fill="#282D33" d="M58.107,127.758h-3.993v-8.283l46.43-51.514c-1.732-0.606-4.613-0.723-8.172,2.526
			c-7.879,7.197-20.441,19.926-20.566,20.054l-2.842-2.803c0.127-0.129,12.762-12.931,20.717-20.198
			c6.768-6.184,12.99-3.694,15.336-1.513l1.439,1.337l-48.35,53.645V127.758z"/>
	</g>
	<g>
		<path fill="#282D33" d="M33.728,128l-3.704-1.491l6.061-15.05c0.334-0.957,3.969-10.812,14.163-17.539
			c9.797-6.467,12.292-13.561,13.371-19.019c1.577-7.985,3.221-10.281,11.784-11.226l2.814-0.311l-7.74,32.64l-3.885-0.922
			l6.414-27.043c-3.959,0.749-4.393,2.176-5.471,7.636c-1.229,6.221-4.056,14.296-15.088,21.576
			c-9.309,6.146-12.568,15.453-12.601,15.545l-0.039,0.105L33.728,128z"/>
	</g>
	<g>
		<rect x="62.004" fill="#282D33" width="3.992" height="6.481"/>
	</g>
</g>
</svg>
