<?xml version="1.0" encoding="utf-8"?>
<!-- Generator: Adobe Illustrator 16.0.0, SVG Export Plug-In . SVG Version: 6.00 Build 0)  -->
<!DOCTYPE svg PUBLIC "-//W3C//DTD SVG 1.1//EN" "http://www.w3.org/Graphics/SVG/1.1/DTD/svg11.dtd">
<svg version="1.1" id="Layer_1" xmlns="http://www.w3.org/2000/svg" xmlns:xlink="http://www.w3.org/1999/xlink" x="0px" y="0px"
	 width="128px" height="128px" viewBox="0 0 128 128" enable-background="new 0 0 128 128" xml:space="preserve">
<g>
	<g>
		<g>
			<g>
				<g>
					<path fill="#282D33" d="M33.653,24.781C33.652,24.781,33.653,24.781,33.653,24.781c-0.677,0-1.36-0.05-2.029-0.149L30.19,24.42
						l-0.245-1.428c-0.753-4.396,0.633-8.919,3.708-12.099c2.619-2.713,6.137-4.207,9.904-4.207c0.677,0,1.358,0.05,2.027,0.149
						l1.434,0.212l0.245,1.427c0.755,4.397-0.631,8.921-3.708,12.103C40.939,23.288,37.421,24.781,33.653,24.781z M43.466,10.685
						c-2.638,0.023-5.1,1.082-6.938,2.986c-1.838,1.9-2.829,4.476-2.786,7.112c2.64-0.024,5.101-1.081,6.938-2.984
						C42.52,15.898,43.511,13.32,43.466,10.685z"/>
				</g>
				<g>
					<path fill="#282D33" d="M21.055,39.387l-1.254-0.747c-3.72-2.215-6.179-6.116-6.578-10.434
						c-0.4-4.317,1.302-8.607,4.554-11.475l1.094-0.965l1.252,0.748c3.717,2.219,6.174,6.119,6.574,10.433
						c0.4,4.313-1.302,8.602-4.551,11.473L21.055,39.387z M19.342,20.853c-1.585,1.94-2.372,4.457-2.137,6.986
						c0.233,2.527,1.465,4.852,3.375,6.463c1.585-1.943,2.372-4.458,2.138-6.986C22.483,24.791,21.251,22.466,19.342,20.853z"/>
				</g>
				<g>
					<path fill="#282D33" d="M15.507,60.63l-1.445-0.141c-4.307-0.421-8.177-2.912-10.351-6.661
						c-2.172-3.742-2.429-8.353-0.688-12.333l0.582-1.331l1.445,0.143c4.307,0.424,8.175,2.915,10.35,6.661
						c2.17,3.741,2.427,8.352,0.689,12.333L15.507,60.63z M6.18,44.563c-0.627,2.44-0.286,5.062,0.989,7.259
						c1.269,2.188,3.357,3.767,5.76,4.412c0.626-2.441,0.286-5.063-0.987-7.26C10.672,46.788,8.584,45.209,6.18,44.563z"/>
				</g>
				<g>
					<path fill="#282D33" d="M13.489,83.521C13.489,83.521,13.489,83.521,13.489,83.521c-2.746,0-5.395-0.834-7.658-2.412
						c-3.537-2.468-5.705-6.54-5.8-10.893L0,68.773l1.36-0.484c1.458-0.519,2.98-0.781,4.524-0.781c2.748,0,5.396,0.835,7.659,2.412
						c3.539,2.473,5.706,6.544,5.798,10.894l0.031,1.442l-1.359,0.484C16.555,83.258,15.033,83.521,13.489,83.521z M4.184,71.66
						c0.453,2.484,1.86,4.721,3.935,6.168c1.589,1.109,3.447,1.694,5.371,1.694h0c0.573,0,1.141-0.051,1.701-0.153
						c-0.452-2.483-1.859-4.72-3.935-6.171C9.196,71.763,6.626,71.212,4.184,71.66z"/>
				</g>
				<g>
					<path fill="#282D33" d="M21.479,105.125C21.479,105.125,21.479,105.125,21.479,105.125c-0.76,0-1.526-0.066-2.28-0.196
						c-4.25-0.73-7.927-3.501-9.835-7.41l-0.63-1.29l1.022-1.008c2.549-2.518,5.904-3.904,9.446-3.904
						c0.758,0,1.524,0.065,2.276,0.195c4.248,0.731,7.923,3.501,9.833,7.409l0.631,1.289l-1.021,1.01
						C28.375,103.737,25.022,105.125,21.479,105.125z M13.733,97.079c1.447,2.057,3.656,3.482,6.144,3.91
						c2.498,0.426,5.043-0.172,7.067-1.627c-1.448-2.058-3.657-3.482-6.143-3.911C18.308,95.024,15.76,95.625,13.733,97.079z"/>
				</g>
				<g>
					<path fill="#282D33" d="M37.736,121.313L37.736,121.313c-3.059,0-6.065-1.071-8.465-3.017l-1.116-0.904l0.501-1.347
						c1.519-4.076,4.904-7.195,9.057-8.345c4.146-1.143,8.689-0.177,12.031,2.528l1.117,0.903l-0.5,1.347
						c-1.514,4.079-4.902,7.2-9.062,8.349C40.134,121.149,38.935,121.313,37.736,121.313z M33.049,116.054
						c1.427,0.82,3.047,1.261,4.687,1.261h0c0.839,0,1.68-0.114,2.5-0.341c2.435-0.673,4.495-2.31,5.733-4.5
						c-2.159-1.239-4.77-1.584-7.191-0.92C36.348,112.227,34.289,113.864,33.049,116.054z"/>
				</g>
				<g>
					<path fill="#282D33" d="M56.773,112.769c-26.248-4.615-44.655-28.327-42.816-55.157c0.957-13.94,7.242-26.672,17.7-35.85
						l2.637,3.005c-9.659,8.477-15.465,20.238-16.349,33.118c-1.698,24.784,15.292,46.687,39.52,50.946L56.773,112.769z"/>
				</g>
			</g>
			<g>
				<g>
					<path fill="#282D33" d="M94.353,24.784c-3.768,0-7.286-1.494-9.908-4.207c-3.076-3.182-4.461-7.706-3.704-12.101l0.245-1.427
						l1.433-0.211c0.668-0.099,1.349-0.148,2.024-0.148c3.767,0,7.285,1.493,9.906,4.205c3.079,3.188,4.464,7.712,3.703,12.105
						l-0.247,1.426l-1.432,0.21C95.706,24.734,95.027,24.784,94.353,24.784z M84.536,10.688c-0.045,2.633,0.945,5.21,2.783,7.111
						c1.84,1.904,4.3,2.962,6.938,2.987c0.046-2.633-0.945-5.209-2.784-7.113C89.635,11.77,87.174,10.712,84.536,10.688z"/>
				</g>
				<g>
					<path fill="#282D33" d="M106.947,39.39l-1.094-0.966c-3.249-2.871-4.95-7.161-4.553-11.476
						c0.398-4.316,2.858-8.216,6.58-10.432l1.254-0.746l1.092,0.965c3.246,2.866,4.948,7.154,4.553,11.472
						c-0.399,4.319-2.859,8.22-6.579,10.436L106.947,39.39z M108.66,20.854c-1.911,1.612-3.146,3.936-3.378,6.461
						c-0.233,2.529,0.554,5.046,2.139,6.989c1.911-1.612,3.144-3.937,3.378-6.464C111.03,25.311,110.243,22.795,108.66,20.854z"/>
				</g>
				<g>
					<path fill="#282D33" d="M112.497,60.635l-0.582-1.332c-1.739-3.983-1.481-8.595,0.689-12.335
						c2.174-3.746,6.042-6.237,10.348-6.661l1.447-0.143l0.581,1.333c1.737,3.984,1.48,8.594-0.688,12.332
						c-2.174,3.748-6.043,6.239-10.35,6.664L112.497,60.635z M121.82,44.563c-2.402,0.646-4.489,2.225-5.759,4.411
						c-1.273,2.196-1.614,4.818-0.987,7.261c2.403-0.647,4.491-2.226,5.76-4.413C122.106,49.628,122.447,47.006,121.82,44.563z"/>
				</g>
				<g>
					<path fill="#282D33" d="M114.512,83.521c-1.544,0-3.066-0.263-4.524-0.78l-1.359-0.484l0.03-1.442
						c0.094-4.349,2.262-8.419,5.799-10.889c2.264-1.579,4.912-2.413,7.66-2.413c1.543,0,3.065,0.263,4.522,0.78l1.36,0.483
						l-0.031,1.444c-0.095,4.351-2.264,8.422-5.8,10.889C119.907,82.687,117.26,83.521,114.512,83.521z M112.811,79.369
						c2.446,0.446,5.01-0.104,7.07-1.54c2.075-1.447,3.483-3.683,3.935-6.166c-2.441-0.447-5.011,0.104-7.07,1.54
						C114.67,74.652,113.263,76.888,112.811,79.369z"/>
				</g>
				<g>
					<path fill="#282D33" d="M106.521,105.125c-3.542,0-6.896-1.388-9.44-3.905l-1.021-1.011l0.631-1.289
						c1.909-3.904,5.585-6.673,9.833-7.405c0.754-0.13,1.521-0.195,2.279-0.195c3.543,0,6.896,1.387,9.444,3.904l1.023,1.01
						l-0.633,1.29c-1.914,3.91-5.591,6.679-9.836,7.406C108.049,105.06,107.281,105.125,106.521,105.125z M101.059,99.363
						c2.024,1.455,4.563,2.058,7.066,1.626c2.485-0.426,4.695-1.851,6.145-3.908c-2.025-1.454-4.57-2.055-7.067-1.627
						C104.716,95.884,102.507,97.309,101.059,99.363z"/>
				</g>
				<g>
					<path fill="#282D33" d="M90.268,121.313c-1.199,0-2.4-0.164-3.567-0.486c-4.155-1.146-7.544-4.266-9.062-8.346l-0.502-1.346
						l1.117-0.904c3.342-2.708,7.89-3.673,12.032-2.529c4.154,1.148,7.541,4.268,9.059,8.348l0.502,1.348l-1.117,0.903
						C96.328,120.243,93.323,121.313,90.268,121.313z M82.031,112.474c1.239,2.191,3.299,3.828,5.732,4.5
						c2.421,0.667,5.028,0.321,7.189-0.917c-1.241-2.191-3.301-3.829-5.732-4.501C86.801,110.888,84.19,111.234,82.031,112.474z"/>
				</g>
				<g>
					<path fill="#282D33" d="M71.229,112.771l-0.692-3.938c24.228-4.262,41.217-26.163,39.52-50.945
						c-0.885-12.879-6.691-24.641-16.348-33.12l2.638-3.004c10.455,9.179,16.741,21.911,17.698,35.85
						C115.883,84.441,97.477,108.153,71.229,112.771z"/>
				</g>
			</g>
		</g>
	</g>
	<g>
		<path fill="#282D33" d="M80.215,83.653L64,71.777L47.786,83.653l6.191-19.215L37.792,52.582h20.007L64,33.345l6.201,19.237h20.004
			L74.021,64.438L80.215,83.653z M50.016,56.58l8.652,6.337l-3.293,10.222L64,66.821l8.625,6.317L69.33,62.917l8.652-6.338H67.288
			L64,46.376L60.711,56.58H50.016z"/>
	</g>
</g>
</svg>
