<?xml version="1.0" encoding="utf-8"?>
<!-- Generator: Adobe Illustrator 16.0.0, SVG Export Plug-In . SVG Version: 6.00 Build 0)  -->
<!DOCTYPE svg PUBLIC "-//W3C//DTD SVG 1.1//EN" "http://www.w3.org/Graphics/SVG/1.1/DTD/svg11.dtd">
<svg version="1.1" id="Layer_1" xmlns="http://www.w3.org/2000/svg" xmlns:xlink="http://www.w3.org/1999/xlink" x="0px" y="0px"
	 width="128px" height="128px" viewBox="0 0 128 128" enable-background="new 0 0 128 128" xml:space="preserve">
<g>
	<g>
		<path fill="#282D33" d="M97.557,125.813l-1.306-1.124c-1.189-1.025-29.141-25.291-29.141-41.902
			c0-16.947,13.657-30.734,30.446-30.734c16.786,0,30.443,13.787,30.443,30.734c0,16.611-27.948,40.877-29.138,41.902
			L97.557,125.813z M97.557,56.052c-14.583,0-26.446,11.993-26.446,26.734c0,12.922,20.95,32.734,26.446,37.709
			C103.052,115.519,124,95.698,124,82.786C124,68.045,112.138,56.052,97.557,56.052z"/>
	</g>
	<g>
		<g>
			<path fill="#282D33" d="M70.017,90.721h-1.77V86.72h1.77V90.721z M64.247,90.721h-4V86.72h4V90.721z M56.247,90.721h-4V86.72h4
				V90.721z M48.246,90.721h-4V86.72h4V90.721z M40.246,90.721h-4V86.72h4V90.721z M32.246,90.721h-4V86.72h4V90.721z
				 M24.246,90.721h-4V86.72h4V90.721z M16.246,90.721l-4.079-0.004l0.079-3.998l0.046,0.001h3.954V90.721z M7.579,89.774
				c-1.475-0.618-2.801-1.509-3.939-2.646l2.828-2.83c0.77,0.77,1.663,1.371,2.657,1.787L7.579,89.774z M0.988,83.201
				C0.365,81.734,0.032,80.177,0,78.571l3.999-0.08c0.022,1.092,0.248,2.15,0.671,3.146L0.988,83.201z M4.542,75.321L0.8,73.909
				c0.565-1.498,1.403-2.854,2.49-4.032l2.939,2.713C5.492,73.389,4.925,74.308,4.542,75.321z M8.814,70.694l-1.697-3.621
				c1.454-0.682,3.007-1.064,4.615-1.138l0.182,3.996C10.833,69.98,9.79,70.237,8.814,70.694z M51.824,69.923h-4.001v-4h4.001
				V69.923z M43.823,69.923h-4v-4h4V69.923z M35.823,69.923h-4v-4h4V69.923z M27.823,69.923h-4v-4h4V69.923z M19.823,69.923h-4v-4h4
				V69.923z"/>
		</g>
		<g>
			<path fill="#282D33" d="M57.302,69.899h-2.076v-4h2.076c0.419,0,0.829-0.07,1.219-0.208l1.336,3.77
				C59.036,69.752,58.177,69.899,57.302,69.899z M51.226,69.899h-4v-4h4V69.899z M63.929,66.079l-3.455-2.016
				c0.334-0.573,0.511-1.232,0.511-1.907c0-0.208-0.017-0.417-0.05-0.618l3.947-0.647c0.068,0.415,0.103,0.841,0.103,1.266
				C64.984,63.539,64.619,64.896,63.929,66.079z M59.687,59.312c-0.66-0.569-1.501-0.885-2.368-0.888l0.017-4
				c1.82,0.008,3.583,0.668,4.964,1.859L59.687,59.312z M53.327,58.423h-4v-4h4V58.423z M45.327,58.423h-4v-4h4V58.423z
				 M37.327,58.423h-4v-4h4V58.423z M29.327,58.423h-4.001v-4h4.001V58.423z"/>
		</g>
	</g>
	<g>
		<path fill="#282D33" d="M23.764,50.952l-1.305-1.125c-1.93-1.662-18.854-16.55-18.854-27.296c0-11.217,9.043-20.343,20.158-20.343
			s20.157,9.126,20.157,20.343c0,10.746-16.922,25.634-18.852,27.296L23.764,50.952z M23.764,6.188
			c-8.909,0-16.158,7.332-16.158,16.343c0,6.96,10.668,18.109,16.158,23.107c5.49-5.001,16.157-16.155,16.157-23.107
			C39.921,13.519,32.673,6.188,23.764,6.188z"/>
	</g>
	<g>
		<path fill="#282D33" d="M23.763,31.956c-5.155,0-9.35-4.228-9.35-9.424c0-5.195,4.194-9.421,9.35-9.421
			c5.152,0,9.344,4.226,9.344,9.421C33.106,27.729,28.915,31.956,23.763,31.956z M23.763,17.111c-2.95,0-5.35,2.432-5.35,5.421
			c0,2.991,2.399,5.424,5.35,5.424c2.946,0,5.344-2.434,5.344-5.424C29.106,19.542,26.709,17.111,23.763,17.111z"/>
	</g>
	<g>
		<path fill="#282D33" d="M97.557,99.056c-8.894,0-16.128-7.298-16.128-16.27c0-8.967,7.234-16.263,16.128-16.263
			c8.884,0,16.111,7.296,16.111,16.263C113.668,91.758,106.44,99.056,97.557,99.056z M97.557,70.523
			c-6.687,0-12.128,5.501-12.128,12.263c0,6.766,5.441,12.27,12.128,12.27c6.678,0,12.111-5.504,12.111-12.27
			C109.668,76.024,104.234,70.523,97.557,70.523z"/>
	</g>
</g>
</svg>
