<svg xmlns="http://www.w3.org/2000/svg" viewBox="0 0 122.77 122.88"><defs><style>.cls-1{isolation:isolate;}.cls-2{fill:#e6f0ff;}.cls-3{fill:#544741;}.cls-4,.cls-5{fill:#8cbfff;}.cls-5{opacity:0.4;mix-blend-mode:multiply;}.cls-6{fill:#f9592f;fill-rule:evenodd;}</style></defs><title>add-place-banner</title><g class="cls-1"><g id="Слой_1" data-name="Слой 1"><path class="cls-2" d="M161.45,97.56a61.36,61.36,0,0,0-63.2-59.22H98a61.33,61.33,0,1,0,4.15,122.59h.22A61.35,61.35,0,0,0,161.45,97.56Z" transform="translate(-38.72 -38.14)"/><polygon class="cls-3" points="62.66 92.69 62.66 92.7 62.66 92.68 62.66 92.69"/><path class="cls-4" d="M156.68,75.47l-3.2.16-1.67-1.71-.4-2.82-1.61,1L149,75.54l-2.46-2.45-.18-2.38L144,68.82l-.88-.81-2.66.09.92,2.34,3.26,1.68.58.57-.68.37.09,1.87-1.53.7-1.34-.25-.87-1.15,2.16,0,.56-.81-4.9-3.07L138.33,69l-1.89,1.83-2-.34-2.87,4L131,76.08l-1.92.24-2.84.11-1.73-.74-.62-3.36.56-1.63,2.87-.73,3.18.53.32-1.76-1.35-.27.37-2.73,3.16-.6,2.11-3.21,2.28-.46,2.08.24.76,0-.52-2.93-2.48,1.1-1-2.17-1.47-.15-.33-1.5,1.15-1.34,2.79-1.21.69-1.33a61.18,61.18,0,0,0-40.92-14h-.14a61.11,61.11,0,0,0-35.68,13l3.1-.13,1.4.72,2.86,1.49h4.14l-.61-1.31-2.84-.82-.34-1-3.32.11,3.53-2.83,3.47-.12,1.71,2.19,2.71.06,1.58-1.64,1.25.57L78.9,50.77l-3,.15a10.23,10.23,0,0,1,.33,2.13L80,52.83l.38-1L83,51.55,83.27,50l-1.54-.21.46-1.39,1.16-.4,4.09.06L85.26,50.2l.42,1.57L88,52l-.25-2.85L90,47.94l4-.59,5.85,2.36.07,2.19,1.86.4-.86,1.77-2.09.07-.51,0-.7,2-6-1.2,4.59-2.65-1.83-1.45-4.35,1h0L89.9,52l-1.12,1.25-1.91.23.19,1,.68.25,0,.32-1.55.28-.08.91-1.49.13-.33-1.79-2.65.91-5.36,3.39L76.94,61,78.5,62l3.08.32.12,3.48,1.41-.28,1.21-2.76,3.22-1.14-.14-4.17L89.15,56l4.41.88-.21,2.77,1.18,0,3.16-1.69L98,61.52l1.09.62,1.29.73,0,2.15-1.16.44.05,1.49,1.81.75v1.48l-.78.09v0l-1-.26-2.5-.68-.18-1.09h0l1-.72-1.11-1.23-.23.93-1.87.35-.19-.06v.09l-.65.12L90.4,66l1.2,1.45,1.14.12-.25.12-1,1.18L91,68.28,90,68,87.38,70.7l.36.28L83.8,73.34l-3.64,4.06L80,79.15l-3.7,2.62-1.81,2,.33,3.77-2.65-1.12-.05-2.21-7.24.25-3.68,2-1.53,3.06-.56,2.4,1.13,2.27,3,.26,4.59-3.3.46,1.54-1.34,2.76,3.6.49.54,5.51,4.93.67,3-3.7,5.19,2.44,3.61-.34.07-1.08,8.26,4.27,1.82,5.51,9.75,1.36,1.67,2.54,2.42.69-.39,2.16-2.51,3.43-.52,7.41-2.31,2h-3.53l-1.1,2.07v0l1,3.79-4.81,7.32L94,143.82l-2.45,1.47,1.7.43-1.63,2.61,1,1.12h1.82l-.05,1.41-.55,2.52,2.76,2.17-4,1.24-3.74-3.05-3-4.88L86,144l-2.24-2.79.7-4.87L83.22,136l-.36-10.51-5.77-3-.43-2-4.84-5.66.42-5.53L75.39,107l-.59-3.81-4.7-.19L66.28,99l-2.63-.62L62,98.09l-2-1.77,0,.87L54.58,96l-2.27-3.23.82-1.63-3.56-4.84-.71-3.6-1.38,0,.58,3.5,2.47,3.54-.21,1.44-2-.24-2.59-4.09-.16-4.86L43,81l-.12-3.49A61.43,61.43,0,0,0,102.27,161h.14a61.34,61.34,0,0,0,46.72-24.3l-2,.07-.14-4.08-2.45-3.08-.17-4.91-1.85-1.72-.22-2,2.12-4.42L139.82,109l.34-5.17-3.89-.27-4.08-1.29-1.28,1.27-4.59.16-.14.41-2.55.09-6.09-6.48-.13-5.21,1-.39.29-2-1.38,0-.63-2.07L123.26,83l-.12-3.47,3.26-2,1.35.09,2.73-.09,2.1-1.22,6.87-.77.12,3.52L146.15,81l1,0-.06-1.92,3.13-.41,3.06,2.12,5.23-.49Q157.69,77.82,156.68,75.47ZM127.09,59l.53-.88,2-.48.59,2.43,1.13,1.7.74.79,1.32.46-1.17,1.5-2.37.31-1.79.06.13-2.12,1.47-.36-.16-1-1.41-.82-1-.63Zm-3.19,3.94,1.16-2,1.64-.44,1.2.47-.06,1.33-2.46,1.87-1.43,0ZM92,70.06,93.71,70l.33-.95.7,0,.81.14-.32.72-.87.11-.15.85-.66.44-1.07.13L92.4,71H92Zm-2.43,1.69,0-.89.55-.73.79.58-.1.9Z" transform="translate(-38.72 -38.14)"/><path class="cls-5" d="M161.45,97.47a61.4,61.4,0,0,0-59.19-59.33V161h.16A61.42,61.42,0,0,0,161.45,97.47Z" transform="translate(-38.72 -38.14)"/><path class="cls-6" d="M54.57,44.94h0a7.81,7.81,0,0,0-7.89,7.2s0,1.4,0,1.59C47,56,52.92,65.36,54.56,68c1.64-2.64,7.59-12,7.87-14.27,0-.19,0-1.59,0-1.59A7.81,7.81,0,0,0,54.57,44.94ZM56.5,56.08a3.76,3.76,0,0,1-1.94.53,3.59,3.59,0,0,1-2.52-1c-2.22-2.05-1.37-6.8,2.53-6.8C58.8,48.83,59.44,54.39,56.5,56.08Z" transform="translate(-38.72 -38.14)"/><path class="cls-6" d="M89.45,100.49h0a7.81,7.81,0,0,0-7.89,7.2s0,1.4,0,1.59c.28,2.27,6.23,11.63,7.87,14.27,1.64-2.64,7.59-12,7.87-14.27,0-.19,0-1.59,0-1.59A7.81,7.81,0,0,0,89.45,100.49Zm1.92,11.14a3.76,3.76,0,0,1-1.94.53,3.59,3.59,0,0,1-2.52-1c-2.22-2.05-1.37-6.8,2.53-6.8C93.67,104.39,94.31,109.95,91.37,111.63Z" transform="translate(-38.72 -38.14)"/><path class="cls-6" d="M119.82,70.29h0a7.81,7.81,0,0,0-7.89,7.2s0,1.4,0,1.59c.28,2.27,6.23,11.63,7.87,14.27,1.64-2.64,7.59-12,7.87-14.27,0-.19,0-1.59,0-1.59A7.81,7.81,0,0,0,119.82,70.29Zm1.92,11.14a3.77,3.77,0,0,1-1.94.53,3.59,3.59,0,0,1-2.52-1c-2.22-2.05-1.37-6.8,2.53-6.8C124,74.18,124.69,79.74,121.74,81.43Z" transform="translate(-38.72 -38.14)"/></g></g></svg>