<svg id="Layer_1" data-name="Layer 1" xmlns="http://www.w3.org/2000/svg" viewBox="0 0 953.18 1631.38"><defs><style>.cls-1{fill:#ededed;}.cls-2{fill:#f6f5f4;}.cls-3{fill:#f6f6f6;}</style></defs><title>1111</title><path class="cls-1" d="M2056.5,1073.28c-263.21,0-476.59,213.38-476.59,476.59a478.33,478.33,0,0,0,62.81,236.63c.31.54,131.19,226.34,132.62,228.08l99,162c15.24,24.92,40.15,65.71,55.38,90.62l99.1,162.17c15.23,24.92,40.14,24.92,55.38,0l99.1-162.17,55.38-90.62,99-162c1.43-1.74,132.31-227.53,132.62-228.07a478.32,478.32,0,0,0,62.81-236.63C2533.09,1286.65,2319.71,1073.28,2056.5,1073.28Zm227.83,704.15a322.2,322.2,0,1,1,94.37-227.83A320.08,320.08,0,0,1,2284.33,1777.43Z" transform="translate(-1579.91 -1073.28)"/><path class="cls-2" d="M2284.33,1321.77a322.2,322.2,0,0,1-227.83,550V2448c10,0,20.07-6.23,27.69-18.69l99.1-162.17,55.38-90.62,99-162c1.43-1.74,132.31-227.53,132.62-228.07a478.32,478.32,0,0,0,62.81-236.63c0-263.22-213.38-476.59-476.59-476.59V1227.4A320.09,320.09,0,0,1,2284.33,1321.77Z" transform="translate(-1579.91 -1073.28)"/><ellipse class="cls-3" cx="476.59" cy="1587.38" rx="190.21" ry="44"/><path class="cls-3" d="M1899.22,1774.68a19.57,19.57,0,0,1-8.62-7.62q-2.66-4.63-9.61-17.57t-9-18.23a17.65,17.65,0,0,1-2-8q0-8,8-15.91,64.3-69.61,130.28-141.88t90.5-99.45a11.66,11.66,0,0,1,8.62-3.32q5.3,0,8,3.32l47.07,41.11a12.86,12.86,0,0,1,0,17.24l-161.11,163.1q-6.64,6.64-6.63,9.94,0,5.31,13.26,5.3l205.53-2a11.37,11.37,0,0,1,11.93,11.93v52.38a12,12,0,0,1-3.32,8.29,11.11,11.11,0,0,1-8.62,3.65H1911.15A21.14,21.14,0,0,1,1899.22,1774.68Zm-22.87-389.84a11.39,11.39,0,0,1-3.65-8.29v-51.71a12.17,12.17,0,0,1,3.65-9,11.43,11.43,0,0,1,8.29-3.65h328.85a11.47,11.47,0,0,1,8.29,3.65,12.21,12.21,0,0,1,3.65,9v51.71a12,12,0,0,1-3.32,8.29,11.11,11.11,0,0,1-8.62,3.65H1884.63A11.39,11.39,0,0,1,1876.34,1384.84Z" transform="translate(-1579.91 -1073.28)"/></svg>