<svg id="Слой_1" data-name="Слой 1" xmlns="http://www.w3.org/2000/svg" viewBox="0 0 682.4 113.44"><defs><style>.cls-1{fill:#fff;}</style></defs><title>zakuski</title><path class="cls-1" d="M15.32,156.4a4.72,4.72,0,0,1-2.08-1.84q-.64-1.12-2.32-4.24a42.64,42.64,0,0,1-2.16-4.4A4.26,4.26,0,0,1,8.28,144a5.53,5.53,0,0,1,1.92-3.84q15.52-16.8,31.44-34.24t21.84-24a2.81,2.81,0,0,1,2.08-.8,2.32,2.32,0,0,1,1.92.8l11.36,9.92a3.1,3.1,0,0,1,0,4.16L40,135.36q-1.6,1.6-1.6,2.4,0,1.28,3.2,1.28l49.6-.48A2.74,2.74,0,0,1,94,141.44v12.64a2.89,2.89,0,0,1-.8,2,2.68,2.68,0,0,1-2.08.88h-73A5.1,5.1,0,0,1,15.32,156.4ZM9.8,62.32a2.75,2.75,0,0,1-.88-2V47.84a2.94,2.94,0,0,1,.88-2.16,2.76,2.76,0,0,1,2-.88H91.16a2.77,2.77,0,0,1,2,.88A3,3,0,0,1,94,47.84V60.32a2.89,2.89,0,0,1-.8,2,2.68,2.68,0,0,1-2.08.88H11.8A2.75,2.75,0,0,1,9.8,62.32Z" transform="translate(-8.28 -44.8)"/><path class="cls-1" d="M115.48,156.48a1.72,1.72,0,0,1-.32-1.44L143.48,47.36a3.64,3.64,0,0,1,1.2-1.68,3.07,3.07,0,0,1,2-.72H180a3.46,3.46,0,0,1,1.92.64,3.1,3.1,0,0,1,1.28,1.6l28.32,107.68v.48q0,1.76-1.6,1.76H194.2a3.54,3.54,0,0,1-2-.72,2.58,2.58,0,0,1-1.2-1.68L183.16,125a4.05,4.05,0,0,0-1.6-2.4,4.46,4.46,0,0,0-2.72-1h-31a4.46,4.46,0,0,0-2.72,1,4,4,0,0,0-1.6,2.4l-7.84,29.6a2.65,2.65,0,0,1-1.2,1.84,3.55,3.55,0,0,1-2,.72H116.76A1.52,1.52,0,0,1,115.48,156.48Zm58.4-52a3,3,0,0,0,2.48-1.12,2.93,2.93,0,0,0,.56-2.56l-9-33a3.32,3.32,0,0,0-1.44-2.24,4.46,4.46,0,0,0-2.72-1h-1a4.46,4.46,0,0,0-2.72,1,3.3,3.3,0,0,0-1.44,2.24l-8.8,33-.16.8a2.8,2.8,0,0,0,.8,2.08,3,3,0,0,0,2.24.8Z" transform="translate(-8.28 -44.8)"/><path class="cls-1" d="M235.64,156a2,2,0,0,1-.64-1.44v-107a2.48,2.48,0,0,1,.48-1.76,2.21,2.21,0,0,1,1.6-.48h16.8a2,2,0,0,1,1.44.64,2.18,2.18,0,0,1,.64,1.6V80.16a2.49,2.49,0,0,0,.72,1.84,2.3,2.3,0,0,0,1.68.72,2.91,2.91,0,0,0,2.08-1l29.76-35a4.54,4.54,0,0,1,1.2-1.12,3.49,3.49,0,0,1,1.68-.32h23c.64,0,1,.13,1.2.4s0,.67-.4,1.2l-41,48.8a1.28,1.28,0,0,0-.16,1.92q16.8,22.24,28.72,39.36t12.24,17.6a.94.94,0,0,1,.16.64,1.32,1.32,0,0,1-.56,1,2.26,2.26,0,0,1-1.52.48H298.36a10.59,10.59,0,0,1-4.16-.64,8,8,0,0,1-2.72-2.08L263,113.28a2.29,2.29,0,0,0-1.76-1,2,2,0,0,0-1.44.64,13.28,13.28,0,0,0-3.2,4.32,17,17,0,0,0-.64,5.44v31.84a2.19,2.19,0,0,1-2.08,2.08h-16.8A2,2,0,0,1,235.64,156Z" transform="translate(-8.28 -44.8)"/><path class="cls-1" d="M356.92,153a40.28,40.28,0,0,1-14.56-14.32,37.6,37.6,0,0,1-5.44-19.76V48a2.94,2.94,0,0,1,.88-2.16,2.76,2.76,0,0,1,2-.88h15.36a2.77,2.77,0,0,1,2,.88A3,3,0,0,1,358,48v70.88a18.33,18.33,0,0,0,5.44,13.36,17.93,17.93,0,0,0,13.28,5.52,24.84,24.84,0,0,0,11.12-2.56,21.39,21.39,0,0,0,8.24-6.88,16.06,16.06,0,0,0,3-9.44V48a2.94,2.94,0,0,1,.88-2.16,2.76,2.76,0,0,1,2-.88H417.4a2.77,2.77,0,0,1,2,.88,3,3,0,0,1,.88,2.16v70.88a36.69,36.69,0,0,1-5.6,19.84A40.08,40.08,0,0,1,399.16,153a46.94,46.94,0,0,1-22.4,5.28A38.92,38.92,0,0,1,356.92,153Z" transform="translate(-8.28 -44.8)"/><path class="cls-1" d="M464,152.48q-12.88-4-18.16-8.8a3.26,3.26,0,0,1-1-2.4,9,9,0,0,1,1.28-4,70.1,70.1,0,0,1,4.32-6.72,3.26,3.26,0,0,1,2.72-1.6,5.1,5.1,0,0,1,1.44.32q11.36,5.76,18.8,7.28a78.44,78.44,0,0,0,15.76,1.52q8.16,0,12.88-2.8t4.72-7.44q0-3.84-3.36-8.16a15.39,15.39,0,0,0-6.64-4.56,111.09,111.09,0,0,0-11.44-3.76q-.8-.16-4.16-1.12-13-3.84-20.16-9.2a25.52,25.52,0,0,1-9.6-13.52,34.35,34.35,0,0,1-1.76-10.24,27.34,27.34,0,0,1,4.32-15A33.43,33.43,0,0,1,466.52,51a50,50,0,0,1,19.2-5.6q1.44-.16,4.48-.16A64.07,64.07,0,0,1,514,49.92q12.48,6.24,11,10.56a26.78,26.78,0,0,1-3.76,6q-2.8,3.6-3.6,4.72a1.68,1.68,0,0,1-1.44.64q-1.6,0-5.44-1.92a37.8,37.8,0,0,0-8.48-3,59.21,59.21,0,0,0-12-1.6A32.77,32.77,0,0,0,480,67a18.79,18.79,0,0,0-6.4,4.88,9.23,9.23,0,0,0-2.24,5.84q0,4.48,4.48,7.84a55.77,55.77,0,0,0,10.64,5.92q5.68,2.4,12.72,5,7.68,2.88,12.4,5.2a22.28,22.28,0,0,1,7.76,6.16,23.3,23.3,0,0,1,5.36,8.64,29.79,29.79,0,0,1,2.16,10.72,25.56,25.56,0,0,1-4.8,15.52,31,31,0,0,1-13.28,10.16,49.59,49.59,0,0,1-19.52,3.6A84.65,84.65,0,0,1,464,152.48Z" transform="translate(-8.28 -44.8)"/><path class="cls-1" d="M554,156a2,2,0,0,1-.64-1.44v-107a2.48,2.48,0,0,1,.48-1.76,2.21,2.21,0,0,1,1.6-.48h16.8a2,2,0,0,1,1.44.64,2.18,2.18,0,0,1,.64,1.6V80.16a2.49,2.49,0,0,0,.72,1.84,2.3,2.3,0,0,0,1.68.72,2.9,2.9,0,0,0,2.08-1l29.76-35a4.54,4.54,0,0,1,1.2-1.12,3.49,3.49,0,0,1,1.68-.32h23c.64,0,1,.13,1.2.4s0,.67-.4,1.2l-41,48.8a1.27,1.27,0,0,0-.16,1.92Q611,119.84,622.92,137t12.24,17.6a.94.94,0,0,1,.16.64,1.32,1.32,0,0,1-.56,1,2.26,2.26,0,0,1-1.52.48H616.76a10.59,10.59,0,0,1-4.16-.64,8,8,0,0,1-2.72-2.08L581.4,113.28a2.29,2.29,0,0,0-1.76-1,2,2,0,0,0-1.44.64,13.28,13.28,0,0,0-3.2,4.32,17,17,0,0,0-.64,5.44v31.84a2.2,2.2,0,0,1-2.08,2.08h-16.8A2,2,0,0,1,554,156Z" transform="translate(-8.28 -44.8)"/><path class="cls-1" d="M669,156.08a2.75,2.75,0,0,1-.88-2V47.84a2.82,2.82,0,0,1,1-2.16,3,3,0,0,1,2.08-.88H687.8a2.77,2.77,0,0,1,2,.88,3,3,0,0,1,.88,2.16V154.08a2.89,2.89,0,0,1-.8,2,2.68,2.68,0,0,1-2.08.88H671.16A2.93,2.93,0,0,1,669,156.08Z" transform="translate(-8.28 -44.8)"/></svg>