<svg id="Слой_1" data-name="Слой 1" xmlns="http://www.w3.org/2000/svg" viewBox="0 0 221.61 140"><defs><style>.cls-1{fill:none;}.cls-1,.cls-2{stroke:#5d5d5d;stroke-linecap:round;stroke-linejoin:round;stroke-width:4px;}.cls-2{fill:#e8500e;}</style></defs><title>delivery-hover</title><path class="cls-1" d="M133.53,96c0,.11,0,.21,0,.31a22.63,22.63,0,1,0,45.26,0c0-.11,0-.21,0-.31Z" transform="translate(-14.19 -5)"/><path class="cls-1" d="M142.82,96c0,.11,0,.21,0,.32a13.35,13.35,0,1,0,26.7,0c0-.11,0-.21,0-.32Z" transform="translate(-14.19 -5)"/><path class="cls-2" d="M148.84,53H108.5l1.22,6.41c14.05,0,12.83,7.63,12.83,7.63l.61,17H95.06c-23.22-11-11-20-11-20,.61-25.7-6.11-27.34-6.11-27.34l-1.67-.84L60.41,64.64C62.24,89.39,84.67,96,84.67,96H191C174.5,59,148.84,53,148.84,53Z" transform="translate(-14.19 -5)"/><path class="cls-1" d="M48.22,86.83,42,98.08a3.67,3.67,0,0,1-6.43-3.53l6.18-11.24a13.34,13.34,0,1,0,6.43,3.53Z" transform="translate(-14.19 -5)"/><path class="cls-1" d="M73.66,13h13c3,0,4.34,1.29,4.34,4.24v.3c0,3-1.39,6.46-4.34,6.46H72.35C70.62,26,68,25.95,63,25.95V7A12.39,12.39,0,0,1,73.66,13Z" transform="translate(-14.19 -5)"/><path class="cls-1" d="M63,9.52a6.6,6.6,0,0,0,0,13Z" transform="translate(-14.19 -5)"/><path class="cls-2" d="M74.38,24,35.61,94.55A3.67,3.67,0,0,0,42,98.08L82.39,24.66a3.68,3.68,0,0,0,.28-.66Z" transform="translate(-14.19 -5)"/><path class="cls-1" d="M109.48,46H148V36H118.84S109.48,35,109.48,46Z" transform="translate(-14.19 -5)"/><path class="cls-1" d="M206.67,88.89c-1.34-1.12-3.18-1.21-5.07-1.21-4.27,0-7.84,3.32-7.84,8.32H189" transform="translate(-14.19 -5)"/><path class="cls-1" d="M214.33,93.13a6.34,6.34,0,0,1-5.43,3.06" transform="translate(-14.19 -5)"/><path class="cls-1" d="M203.67,86.24a6.35,6.35,0,0,1,10.8.54" transform="translate(-14.19 -5)"/><path class="cls-1" d="M211.75,84.16A11.48,11.48,0,1,1,212.81,95" transform="translate(-14.19 -5)"/><line class="cls-1" x1="110.81" y1="114" x2="173.81" y2="114"/><line class="cls-1" x1="2.81" y1="114" x2="58.81" y2="114"/><line class="cls-1" x1="51.81" y1="129" x2="102.81" y2="129"/><line class="cls-1" x1="95.81" y1="138" x2="120.81" y2="138"/><path class="cls-1" d="M52.79,78.52,42,98.08a3.67,3.67,0,0,1-6.43-3.53L46.36,75a22.67,22.67,0,1,0,6.42,3.54Z" transform="translate(-14.19 -5)"/></svg>