<?xml version="1.0" encoding="utf-8"?>
<!-- Generator: Adobe Illustrator 21.0.2, SVG Export Plug-In . SVG Version: 6.00 Build 0)  -->
<svg version="1.1" id="Layer_1" xmlns="http://www.w3.org/2000/svg" xmlns:xlink="http://www.w3.org/1999/xlink" x="0px" y="0px"
	 viewBox="0 0 128 128" style="enable-background:new 0 0 128 128;" xml:space="preserve">
<style type="text/css">
	.st0{fill:#FAFBFC;}
	.st1{fill:#E8500E;}
</style>
<g>
	<path class="st0" d="M64,111.8l-1.7-2.5c-1.4-2.2-35.4-53.2-35.4-72.7C26.9,16.4,43.6,0,64,0c20.4,0,37.1,16.4,37.1,36.6
		c0,19.5-34,70.5-35.4,72.7L64,111.8z M64,4C45.8,4,30.9,18.6,30.9,36.6c0,16,26.2,57.3,33.1,67.9c6.9-10.6,33.1-51.9,33.1-67.9
		C97.1,18.6,82.2,4,64,4z"/>
</g>
<g>
	<path class="st0" d="M64,52.5c-8.8,0-16-7.1-16-15.8c0-8.7,7.2-15.8,16-15.8c8.8,0,16,7.1,16,15.8C80,45.4,72.8,52.5,64,52.5z
		 M64,24.8c-6.6,0-12,5.3-12,11.8s5.4,11.8,12,11.8c6.6,0,12-5.3,12-11.8C76,30.1,70.6,24.8,64,24.8z"/>
</g>
<g>
	<path class="st1" d="M64,128c-26.2,0-46-7.9-46-18.4c0-7.5,9.9-13.7,26.5-16.7l0.7,3.9C31.3,99.4,22,104.5,22,109.6
		c0,6.8,17.3,14.4,42,14.4s42-7.6,42-14.4c0-5.1-9.3-10.3-23.2-12.8l0.7-3.9c16.6,3,26.5,9.2,26.5,16.7C110,120.1,90.2,128,64,128z"
		/>
</g>
</svg>
