<svg id="Слой_1" data-name="Слой 1" xmlns="http://www.w3.org/2000/svg" viewBox="0 0 752 449"><defs><style>.cls-1{fill:#c8313e;}.cls-2{fill:#4aa657;}.cls-3{fill:#fff;}.cls-4{fill:#fcfcfc;}.cls-5{fill:#fffdfd;}</style></defs><title>belarus</title><rect class="cls-1" y="24" width="653" height="294"/><rect class="cls-2" y="220" width="653" height="98"/><rect class="cls-3" y="24" width="72.56" height="294"/><g id="h"><g id="q"><path class="cls-1" d="M483.62,245h9.46v4.82h3.15v4.82h3.15v4.82h3.15v4.82h3.16v4.82h-3.16v4.82h-3.15v4.82h-3.15v4.82h-3.15v4.82h-3.15v4.82h-3.15v-4.82h-3.16v-4.82h-3.15v-4.82h-3.15v-4.82h-3.15V269.1H471v-4.82h3.15v-4.82h3.15v-4.82h3.15v-4.82h3.15Zm3.16,9.64h3.15v4.82h3.15v4.82h3.15v4.82h-3.15v4.82h-3.15v4.82h-3.15v-4.82h-3.16V269.1h-3.15v-4.82h3.15v-4.82h3.16Zm0,9.64h3.15v4.82h-3.15ZM471,249.82h3.15v4.82H471Zm0,28.92h3.15v4.82H471ZM505.7,245h1.89v9.64H505.7Zm0,33.74h1.89v9.64H505.7Zm-28.39,9.64h3.15v4.82h3.15V298h3.16v4.82h-3.16v4.82h-3.15v4.82h-3.15v-4.82h-3.15v-4.82H471V298h3.15V293.2h3.15Zm0,9.64h3.15v4.82h-3.15Zm18.93-9.64h3.15v4.82h3.15V298h3.16v4.82h-3.16v4.82h-3.15v4.82h-3.15v-4.82h-3.15v-4.82h-3.15V298h3.15V293.2h3.15Zm0,9.64h3.15v4.82h-3.15ZM471,317.3h3.15v4.82H471Zm34.7-4.82h1.89v9.64H505.7Z" transform="translate(-471 -221)"/><path class="cls-1" d="M471,331.75h3.15v-4.82h3.15v-4.82h3.15V317.3h3.15v-4.82h3.16v-4.82h3.15v4.82h3.15v4.82h3.15v4.82h3.15v4.82h3.15v4.82h3.16v4.82h1.89v19.28H505.7v4.82h-3.16v4.82h-3.15v4.82h-3.15v4.82h-3.15V380h-3.15v12.53h-6.31v-2.89h-3.15v-4.82h-3.15V380h-3.15v-4.82H471V360.67h3.15v4.82h3.15v4.82h3.15v4.82h3.15v-4.82h3.16v-4.82h3.15v-4.82h3.15v-4.82h3.15V351h3.15v-4.82h-3.15v-4.82h-3.15v-4.82h-9.46v4.82h6.31v4.82h-3.15V351h-3.16v4.82h-3.15V351h-3.15v-4.82h-3.15v-4.82H471ZM471,351h3.15v4.82H471Zm34.7,14.46h1.89v4.82H505.7Zm-6.31,9.64h3.15V380h3.16v4.82h1.89v7.71H505.7v-2.89h-3.16v-4.82h-3.15Zm-6.31,14.46h3.15v2.89h-3.15Z" transform="translate(-471 -221)"/></g><g id="q-2" data-name="q"><path class="cls-1" d="M530.94,245h-9.46v4.82h-3.16v4.82h-3.15v4.82H512v4.82h-3.15v4.82H512v4.82h3.15v4.82h3.15v4.82h3.16v4.82h3.15v4.82h3.15v-4.82h3.15v-4.82h3.15v-4.82h3.15v-4.82h3.16V269.1h3.15v-4.82H540.4v-4.82h-3.16v-4.82h-3.15v-4.82h-3.15Zm-3.15,9.64h-3.15v4.82h-3.15v4.82h-3.16v4.82h3.16v4.82h3.15v4.82h3.15v-4.82h3.15V269.1h3.15v-4.82h-3.15v-4.82h-3.15Zm0,9.64h-3.15v4.82h3.15Zm15.77-14.46H540.4v4.82h3.15Zm0,28.92H540.4v4.82h3.15ZM508.85,245H507v9.64h1.89Zm0,33.74H507v9.64h1.89Zm28.39,9.64h-3.15v4.82h-3.15V298h-3.15v4.82h3.15v4.82h3.15v4.82h3.15v-4.82h3.16v-4.82h3.15V298H540.4V293.2h-3.16Zm0,9.64h-3.15v4.82h3.15Zm-18.93-9.64h-3.15v4.82H512V298h-3.15v4.82H512v4.82h3.15v4.82h3.15v-4.82h3.16v-4.82h3.15V298h-3.15V293.2h-3.16Zm0,9.64h-3.15v4.82h3.15Zm25.24,19.28H540.4v4.82h3.15Zm-34.7-4.82H507v9.64h1.89Z" transform="translate(-471 -221)"/><path class="cls-1" d="M543.56,331.75H540.4v-4.82h-3.16v-4.82h-3.15V317.3h-3.15v-4.82h-3.15v-4.82h-3.15v4.82h-3.15v4.82h-3.16v4.82h-3.15v4.82H512v4.82h-3.15v4.82H507v19.28h1.89v4.82H512v4.82h3.15v4.82h3.15v4.82h3.16V380h3.15v12.53h6.31v-2.89h3.15v-4.82h3.15V380h3.16v-4.82h3.15V360.67H540.4v4.82h-3.16v4.82h-3.15v4.82h-3.15v-4.82h-3.15v-4.82h-3.15v-4.82h-3.15v-4.82h-3.16V351h-3.15v-4.82h3.15v-4.82h3.16v-4.82h9.46v4.82h-6.31v4.82h3.15V351h3.15v4.82h3.15V351h3.15v-4.82h3.16v-4.82h3.15Zm0,19.28H540.4v4.82h3.15Zm-34.7,14.46H507v4.82h1.89Zm6.31,9.64H512V380h-3.15v4.82H507v7.71h1.89v-2.89H512v-4.82h3.15Zm6.31,14.46h-3.16v2.89h3.16Z" transform="translate(-471 -221)"/></g><polygon class="cls-4" points="19.06 57.58 15.9 57.58 15.9 52.76 12.75 52.76 12.75 47.94 9.59 47.94 9.59 43.12 12.75 43.12 12.75 38.3 15.9 38.3 15.9 33.48 19.06 33.48 19.06 38.3 22.21 38.3 22.21 43.12 25.37 43.12 25.37 47.94 22.21 47.94 22.21 52.76 19.06 52.76 19.06 57.58"/><polygon class="cls-4" points="56.92 57.58 53.77 57.58 53.77 52.76 50.62 52.76 50.62 47.94 47.46 47.94 47.46 43.12 50.62 43.12 50.62 38.3 53.77 38.3 53.77 33.48 56.92 33.48 56.92 38.3 60.08 38.3 60.08 43.12 63.23 43.12 63.23 47.94 60.08 47.94 60.08 52.76 56.92 52.76 56.92 57.58"/><rect class="cls-1" x="15.9" y="43.12" width="3.15" height="4.82"/><rect class="cls-1" x="53.63" y="43.28" width="3.15" height="4.82"/><rect class="cls-3" x="63.23" y="77.27" width="3.15" height="4.82"/><rect class="cls-3" x="44.07" y="76.93" width="3.15" height="4.82"/><rect class="cls-5" x="25.37" y="76.93" width="3.15" height="4.82"/><rect class="cls-3" x="6.44" y="76.93" width="3.15" height="4.82"/></g><g id="h-2" data-name="h"><g id="q-3" data-name="q"><path class="cls-1" d="M483.62,539h9.46v-4.82h3.15v-4.82h3.15v-4.82h3.15v-4.82h3.16V514.9h-3.16v-4.82h-3.15v-4.82h-3.15v-4.82h-3.15v-4.82h-3.15V490.8h-3.15v4.82h-3.16v4.82h-3.15v4.82h-3.15v4.82h-3.15v4.82H471v4.82h3.15v4.82h3.15v4.82h3.15v4.82h3.15Zm3.16-9.64h3.15v-4.82h3.15v-4.82h3.15V514.9h-3.15v-4.82h-3.15v-4.82h-3.15v4.82h-3.16v4.82h-3.15v4.82h3.15v4.82h3.16Zm0-9.64h3.15V514.9h-3.15ZM471,534.18h3.15v-4.82H471Zm0-28.92h3.15v-4.82H471ZM505.7,539h1.89v-9.64H505.7Zm0-33.74h1.89v-9.64H505.7Zm-28.39-9.64h3.15V490.8h3.15V486h3.16v-4.82h-3.16v-4.82h-3.15v-4.82h-3.15v4.82h-3.15v4.82H471V486h3.15v4.82h3.15Zm0-9.64h3.15v-4.82h-3.15Zm18.93,9.64h3.15V490.8h3.15V486h3.16v-4.82h-3.16v-4.82h-3.15v-4.82h-3.15v4.82h-3.15v4.82h-3.15V486h3.15v4.82h3.15Zm0-9.64h3.15v-4.82h-3.15ZM471,466.71h3.15v-4.82H471Zm34.7,4.82h1.89v-9.64H505.7Z" transform="translate(-471 -221)"/><path class="cls-1" d="M471,452.25h3.15v4.82h3.15v4.82h3.15v4.82h3.15v4.82h3.16v4.82h3.15v-4.82h3.15v-4.82h3.15v-4.82h3.15v-4.82h3.15v-4.82h3.16v-4.82h1.89V428.15H505.7v-4.82h-3.16v-4.82h-3.15v-4.82h-3.15v-4.82h-3.15V404h-3.15V391.52h-6.31v2.89h-3.15v4.82h-3.15V404h-3.15v4.82H471v14.46h3.15v-4.82h3.15v-4.82h3.15v-4.82h3.15v4.82h3.16v4.82h3.15v4.82h3.15v4.82h3.15V433h3.15v4.82h-3.15v4.82h-3.15v4.82h-9.46v-4.82h6.31v-4.82h-3.15V433h-3.16v-4.82h-3.15V433h-3.15v4.82h-3.15v4.82H471ZM471,433h3.15v-4.82H471Zm34.7-14.46h1.89v-4.82H505.7Zm-6.31-9.64h3.15V404h3.16v-4.82h1.89v-7.71H505.7v2.89h-3.16v4.82h-3.15Zm-6.31-14.46h3.15v-2.89h-3.15Z" transform="translate(-471 -221)"/></g><g id="q-4" data-name="q"><path class="cls-1" d="M530.94,539h-9.46v-4.82h-3.16v-4.82h-3.15v-4.82H512v-4.82h-3.15V514.9H512v-4.82h3.15v-4.82h3.15v-4.82h3.16v-4.82h3.15V490.8h3.15v4.82h3.15v4.82h3.15v4.82h3.15v4.82h3.16v4.82h3.15v4.82H540.4v4.82h-3.16v4.82h-3.15v4.82h-3.15Zm-3.15-9.64h-3.15v-4.82h-3.15v-4.82h-3.16V514.9h3.16v-4.82h3.15v-4.82h3.15v4.82h3.15v4.82h3.15v4.82h-3.15v4.82h-3.15Zm0-9.64h-3.15V514.9h3.15Zm15.77,14.46H540.4v-4.82h3.15Zm0-28.92H540.4v-4.82h3.15ZM508.85,539H507v-9.64h1.89Zm0-33.74H507v-9.64h1.89Zm28.39-9.64h-3.15V490.8h-3.15V486h-3.15v-4.82h3.15v-4.82h3.15v-4.82h3.15v4.82h3.16v4.82h3.15V486H540.4v4.82h-3.16Zm0-9.64h-3.15v-4.82h3.15Zm-18.93,9.64h-3.15V490.8H512V486h-3.15v-4.82H512v-4.82h3.15v-4.82h3.15v4.82h3.16v4.82h3.15V486h-3.15v4.82h-3.16Zm0-9.64h-3.15v-4.82h3.15Zm25.24-19.28H540.4v-4.82h3.15Zm-34.7,4.82H507v-9.64h1.89Z" transform="translate(-471 -221)"/><path class="cls-1" d="M543.56,452.25H540.4v4.82h-3.16v4.82h-3.15v4.82h-3.15v4.82h-3.15v4.82h-3.15v-4.82h-3.15v-4.82h-3.16v-4.82h-3.15v-4.82H512v-4.82h-3.15v-4.82H507V428.15h1.89v-4.82H512v-4.82h3.15v-4.82h3.15v-4.82h3.16V404h3.15V391.52h6.31v2.89h3.15v4.82h3.15V404h3.16v4.82h3.15v14.46H540.4v-4.82h-3.16v-4.82h-3.15v-4.82h-3.15v4.82h-3.15v4.82h-3.15v4.82h-3.15v4.82h-3.16V433h-3.15v4.82h3.15v4.82h3.16v4.82h9.46v-4.82h-6.31v-4.82h3.15V433h3.15v-4.82h3.15V433h3.15v4.82h3.16v4.82h3.15Zm0-19.28H540.4v-4.82h3.15Zm-34.7-14.46H507v-4.82h1.89Zm6.31-9.64H512V404h-3.15v-4.82H507v-7.71h1.89v2.89H512v4.82h3.15Zm6.31-14.46h-3.16v-2.89h3.16Z" transform="translate(-471 -221)"/></g></g><polygon class="cls-4" points="53.5 284.43 56.65 284.43 56.65 289.25 59.81 289.25 59.81 294.06 62.96 294.06 62.96 298.88 59.81 298.88 59.81 303.7 56.65 303.7 56.65 308.52 53.5 308.52 53.5 303.7 50.34 303.7 50.34 298.88 47.19 298.88 47.19 294.06 50.34 294.06 50.34 289.25 53.5 289.25 53.5 284.43"/><polygon class="cls-4" points="15.63 284.43 18.79 284.43 18.79 289.25 21.94 289.25 21.94 294.06 25.09 294.06 25.09 298.88 21.94 298.88 21.94 303.7 18.79 303.7 18.79 308.52 15.63 308.52 15.63 303.7 12.48 303.7 12.48 298.88 9.32 298.88 9.32 294.06 12.48 294.06 12.48 289.25 15.63 289.25 15.63 284.43"/><rect class="cls-1" x="53.5" y="294.07" width="3.15" height="4.82"/><rect class="cls-1" x="15.77" y="293.9" width="3.15" height="4.82"/><rect class="cls-3" x="6.17" y="259.92" width="3.15" height="4.82"/><rect class="cls-3" x="25.33" y="260.26" width="3.15" height="4.82"/><rect class="cls-5" x="44.03" y="260.26" width="3.15" height="4.82"/><rect class="cls-3" x="62.96" y="260.26" width="3.15" height="4.82"/><rect class="cls-3" x="425" width="327" height="449"/></svg>