<svg id="Слой_1" data-name="Слой 1" xmlns="http://www.w3.org/2000/svg" viewBox="0 0 450 544.22"><defs><style>.cls-1{fill:#b0d4b2;}.cls-2{fill:#95c699;}.cls-3{fill:#cfe4d0;}.cls-4{fill:#3f6b33;}.cls-5{fill:#d14a43;}.cls-6,.cls-9{fill:#fff;}.cls-6{opacity:0.4;}.cls-7{fill:#fcfcfc;}.cls-8{fill:#c8313e;}.cls-10{fill:#fffdfd;}</style></defs><title>belarus</title><path class="cls-1" d="M250.21,28.21a224.76,224.76,0,0,0-159.43,66c-88,88-88,225.15,3.38,330.07,84.49,97,156,148.13,156,148.13h0s71.52-51.11,156-148.13c91.37-104.92,91.42-242,3.38-330.07A224.32,224.32,0,0,0,250.21,28.21Z" transform="translate(-25.19 -28.21)"/><path class="cls-2" d="M250.21,28.21l0,544.22h0s71.52-51.11,156-148.13c91.37-104.92,91.42-242,3.38-330.07A224.32,224.32,0,0,0,250.21,28.21Z" transform="translate(-25.19 -28.21)"/><circle class="cls-3" cx="225" cy="224.08" r="206"/><path class="cls-1" d="M250.21,46.28l0,412h0c113.77,0,206-92.23,206-206S364,46.29,250.21,46.28Z" transform="translate(-25.19 -28.21)"/><circle class="cls-4" cx="250.19" cy="252.28" r="190" transform="translate(-102.68 86.71) rotate(-22.49)"/><path class="cls-5" d="M60.54,250.21a190.38,190.38,0,0,0,5,45.66l368.93,4.41a190.41,190.41,0,0,0,6.07-45.53c1.25-104.93-82.79-191-187.72-192.26S61.79,145.28,60.54,250.21Z" transform="translate(-25.19 -28.21)"/><path class="cls-6" d="M408.57,176c17.82,36.94-20.51,74.56-159.72,74.45C110.54,250.35,74,213.12,91.64,176.36A175.82,175.82,0,0,1,408.57,176Z" transform="translate(-25.19 -28.21)"/><path class="cls-7" d="M129,368.09c-.75-45.37,1.57-90.74,1.38-136.11-.17-42.35-1.08-84.69-1.29-127A191,191,0,0,0,130.26,400Q129.28,384.06,129,368.09Z" transform="translate(-25.19 -28.21)"/><rect class="cls-8" x="67.51" y="113.53" width="1.89" height="9.64"/><polygon class="cls-8" points="58.05 123.17 61.2 123.17 61.2 127.99 64.35 127.99 64.35 132.79 67.51 132.79 67.51 137.61 64.35 137.61 64.35 142.43 61.2 142.43 61.2 147.25 58.05 147.25 58.05 142.43 54.9 142.43 54.9 137.61 51.75 137.61 51.75 132.79 54.9 132.79 54.9 127.99 58.05 127.99 58.05 123.17"/><rect class="cls-8" x="58.05" y="132.81" width="3.15" height="4.82"/><rect class="cls-8" x="67.51" y="147.27" width="1.89" height="9.64"/><path class="cls-8" d="M58,194.75h3.15v-4.82H64.3v-4.82h3.15V180.3H70.6v-4.82h3.16v-4.82h3.15v4.82h3.15v4.82h3.15v4.82h3.15v4.82h3.15v4.82h3.16v4.82h1.89v19.28H92.7v4.82H89.54v4.82H86.39v4.82H83.24v4.82H80.09V243H76.94v12.53H70.63v-2.89H67.48v-4.82H64.33V243H61.18v-4.82H58V223.67h3.15v4.82H64.3v4.82h3.15v4.82H70.6v-4.82h3.16v-4.82h3.15v-4.82h3.15v-4.82h3.15V214h3.15v-4.82H83.21v-4.82H80.06v-4.82H70.6v4.82h6.31v4.82H73.76V214H70.6v4.82H67.45V214H64.3v-4.82H61.15v-4.82H58ZM58,214h3.15v4.82H58Zm34.7,14.46h1.89v4.82H92.7Zm-6.31,9.64h3.15V243H92.7v4.82h1.89v7.71H92.7v-2.89H89.54v-4.82H86.39Zm-6.31,14.46h3.15v2.89H80.08Z" transform="translate(-25.19 -28.21)"/><polygon class="cls-8" points="92.75 79.79 83.29 79.79 83.29 84.61 80.13 84.61 80.13 89.43 76.98 89.43 76.98 94.25 73.81 94.25 73.81 99.07 70.66 99.07 70.66 103.89 73.81 103.89 73.81 108.71 76.96 108.71 76.96 113.53 80.11 113.53 80.11 118.35 83.27 118.35 83.27 123.17 86.42 123.17 86.42 127.99 89.57 127.99 89.57 123.17 92.72 123.17 92.72 118.35 95.87 118.35 95.87 113.53 99.02 113.53 99.02 108.71 102.18 108.71 102.18 103.89 105.33 103.89 105.33 99.07 102.21 99.07 102.21 94.25 99.05 94.25 99.05 89.43 95.9 89.43 95.9 84.61 92.75 84.61 92.75 79.79"/><polygon class="cls-8" points="89.6 89.43 86.45 89.43 86.45 94.25 83.3 94.25 83.3 99.07 80.14 99.07 80.14 103.89 83.3 103.89 83.3 108.71 86.45 108.71 86.45 113.53 89.6 113.53 89.6 108.71 92.75 108.71 92.75 103.89 95.9 103.89 95.9 99.07 92.75 99.07 92.75 94.25 89.6 94.25 89.6 89.43"/><rect class="cls-8" x="86.45" y="99.07" width="3.15" height="4.82"/><polygon class="cls-8" points="105.37 84.61 102.21 84.61 102.21 89.43 105.36 89.43 105.37 84.61"/><polygon class="cls-8" points="105.37 113.53 102.21 113.53 102.21 118.35 105.36 118.35 105.37 113.53"/><polygon class="cls-8" points="70.66 113.53 68.81 113.53 68.81 123.17 70.7 123.17 70.66 113.53"/><polygon class="cls-8" points="99.05 123.17 95.9 123.17 95.9 127.99 92.75 127.99 92.75 132.79 89.6 132.79 89.6 137.61 92.75 137.61 92.75 142.43 95.9 142.43 95.9 147.25 99.05 147.25 99.05 142.43 102.21 142.43 102.21 137.61 105.36 137.61 105.36 132.79 102.21 132.79 102.21 127.99 99.05 127.99 99.05 123.17"/><rect class="cls-8" x="95.9" y="132.81" width="3.15" height="4.82"/><polygon class="cls-8" points="80.12 123.17 76.97 123.17 76.97 127.99 73.81 127.99 73.81 132.79 70.66 132.79 70.66 137.61 73.81 137.61 73.81 142.43 76.96 142.43 76.96 147.25 80.11 147.25 80.11 142.43 83.27 142.43 83.27 137.61 86.42 137.61 86.42 132.79 83.27 132.79 83.27 127.99 80.11 127.99 80.12 123.17"/><rect class="cls-8" x="76.97" y="132.81" width="3.15" height="4.82"/><rect class="cls-8" x="102.21" y="152.09" width="3.15" height="4.82"/><polygon class="cls-8" points="70.66 147.27 68.81 147.27 68.81 156.91 70.7 156.91 70.66 147.27"/><path class="cls-8" d="M130.56,194.75H127.4v-4.82h-3.16v-4.82h-3.15V180.3h-3.15v-4.82h-3.15v-4.82h-3.15v4.82h-3.15v4.82h-3.16v4.82h-3.15v4.82H99v4.82H95.85v4.82H94v19.28h1.89v4.82H99v4.82h3.15v4.82h3.15v4.82h3.16V243h3.15v12.53h6.31v-2.89h3.15v-4.82h3.15V243h3.16v-4.82h3.15V223.67H127.4v4.82h-3.16v4.82h-3.15v4.82h-3.15v-4.82h-3.15v-4.82h-3.15v-4.82h-3.15v-4.82h-3.16V214h-3.15v-4.82h3.15v-4.82h3.16v-4.82h9.46v4.82h-6.31v4.82h3.15V214h3.15v4.82h3.15V214h3.15v-4.82h3.16v-4.82h3.15Zm0,19.28H127.4v4.82h3.15Zm-34.7,14.46H94v4.82h1.89Zm6.31,9.64H99V243H95.85v4.82H94v7.71h1.89v-2.89H99v-4.82h3.15Zm6.31,14.46h-3.16v2.89h3.16Z" transform="translate(-25.19 -28.21)"/><polygon class="cls-7" points="89.73 113.37 86.58 113.37 86.58 108.55 83.43 108.55 83.43 103.73 80.27 103.73 80.27 98.91 83.43 98.91 83.43 94.09 86.58 94.09 86.58 89.27 89.73 89.27 89.73 94.09 92.89 94.09 92.89 98.91 96.04 98.91 96.04 103.73 92.89 103.73 92.89 108.55 89.73 108.55 89.73 113.37"/><rect class="cls-8" x="86.44" y="99.07" width="3.15" height="4.82"/><rect class="cls-9" x="96.04" y="133.06" width="3.15" height="4.82"/><rect class="cls-9" x="76.88" y="132.72" width="3.15" height="4.82"/><rect class="cls-10" x="58.18" y="132.72" width="3.15" height="4.82"/><rect class="cls-8" x="67.51" y="330.41" width="1.89" height="9.64"/><polygon class="cls-8" points="58.05 330.41 61.2 330.41 61.2 325.59 64.35 325.59 64.35 320.79 67.51 320.79 67.51 315.97 64.35 315.97 64.35 311.15 61.2 311.15 61.2 306.33 58.05 306.33 58.05 311.15 54.9 311.15 54.9 315.97 51.75 315.97 51.75 320.79 54.9 320.79 54.9 325.61 58.05 325.61 58.05 330.41"/><rect class="cls-8" x="58.05" y="315.95" width="3.15" height="4.82"/><rect class="cls-8" x="67.51" y="296.68" width="1.89" height="9.64"/><path class="cls-8" d="M58,315.25h3.15v4.82H64.3v4.82h3.15v4.82H70.6v4.82h3.16v4.82h3.15v-4.82h3.15v-4.82h3.15v-4.82h3.15v-4.82h3.15v-4.82h3.16v-4.82h1.89V291.15H92.7v-4.82H89.54v-4.82H86.39v-4.82H83.24v-4.82H80.09V267H76.94V254.52H70.63v2.89H67.48v4.82H64.33V267H61.18v4.82H58v14.46h3.15v-4.82H64.3v-4.82h3.15v-4.82H70.6v4.82h3.16v4.82h3.15v4.82h3.15v4.82h3.15V296h3.15v4.82H83.21v4.82H80.06v4.82H70.6v-4.82h6.31v-4.82H73.76V296H70.6v-4.82H67.45V296H64.3v4.82H61.15v4.82H58ZM58,296h3.15v-4.82H58Zm34.7-14.46h1.89v-4.82H92.7Zm-6.31-9.64h3.15V267H92.7v-4.82h1.89v-7.71H92.7v2.89H89.54v4.82H86.39Zm-6.31-14.46h3.15v-2.89H80.08Z" transform="translate(-25.19 -28.21)"/><polygon class="cls-8" points="92.75 373.79 83.29 373.79 83.29 368.97 80.13 368.97 80.13 364.15 76.98 364.15 76.98 359.33 73.81 359.33 73.81 354.51 70.66 354.51 70.66 349.69 73.81 349.69 73.81 344.87 76.96 344.87 76.96 340.05 80.11 340.05 80.11 335.23 83.27 335.23 83.27 330.41 86.42 330.41 86.42 325.59 89.57 325.59 89.57 330.41 92.72 330.41 92.72 335.23 95.87 335.23 95.87 340.05 99.02 340.05 99.02 344.87 102.18 344.87 102.18 349.69 105.33 349.69 105.33 354.51 102.21 354.51 102.21 359.33 99.05 359.33 99.05 364.15 95.9 364.15 95.9 368.97 92.75 368.97 92.75 373.79"/><polygon class="cls-8" points="89.6 364.15 86.45 364.15 86.45 359.33 83.3 359.33 83.3 354.51 80.14 354.51 80.14 349.69 83.3 349.69 83.3 344.87 86.45 344.87 86.45 340.05 89.6 340.05 89.6 344.87 92.75 344.87 92.75 349.69 95.9 349.69 95.9 354.51 92.75 354.51 92.75 359.33 89.6 359.33 89.6 364.15"/><rect class="cls-8" x="86.45" y="349.69" width="3.15" height="4.82"/><polygon class="cls-8" points="105.37 368.97 102.21 368.97 102.21 364.15 105.36 364.15 105.37 368.97"/><polygon class="cls-8" points="105.37 340.05 102.21 340.05 102.21 335.23 105.36 335.23 105.37 340.05"/><polygon class="cls-8" points="70.66 340.05 68.81 340.05 68.81 330.41 70.7 330.41 70.66 340.05"/><polygon class="cls-8" points="99.05 330.41 95.9 330.41 95.9 325.59 92.75 325.59 92.75 320.79 89.6 320.79 89.6 315.97 92.75 315.97 92.75 311.15 95.9 311.15 95.9 306.33 99.05 306.33 99.05 311.15 102.21 311.15 102.21 315.97 105.36 315.97 105.36 320.79 102.21 320.79 102.21 325.61 99.05 325.61 99.05 330.41"/><rect class="cls-8" x="95.9" y="315.95" width="3.15" height="4.82"/><polygon class="cls-8" points="80.12 330.41 76.97 330.41 76.97 325.59 73.81 325.59 73.81 320.79 70.66 320.79 70.66 315.97 73.81 315.97 73.81 311.15 76.96 311.15 76.96 306.33 80.11 306.33 80.11 311.15 83.27 311.15 83.27 315.97 86.42 315.97 86.42 320.79 83.27 320.79 83.27 325.61 80.11 325.61 80.12 330.41"/><rect class="cls-8" x="76.97" y="315.95" width="3.15" height="4.82"/><rect class="cls-8" x="102.21" y="296.67" width="3.15" height="4.82"/><polygon class="cls-8" points="70.66 306.31 68.81 306.31 68.81 296.67 70.7 296.67 70.66 306.31"/><polygon class="cls-8" points="105.37 287.04 102.21 287.04 102.21 291.86 99.05 291.86 99.05 296.68 95.9 296.68 95.9 301.5 92.75 301.5 92.75 306.32 89.6 306.32 89.6 311.14 86.45 311.14 86.45 306.32 83.3 306.32 83.3 301.5 80.14 301.5 80.14 296.68 76.99 296.68 76.99 291.86 73.81 291.86 73.81 287.04 70.66 287.04 70.66 282.22 68.81 282.22 68.81 262.94 70.7 262.94 70.7 258.12 73.81 258.12 73.81 253.3 76.96 253.3 76.96 248.48 80.11 248.48 80.11 243.66 83.27 243.66 83.27 238.79 86.42 238.79 86.42 226.31 92.73 226.31 92.73 229.2 95.88 229.2 95.88 234.02 99.03 234.02 99.03 238.79 102.19 238.79 102.19 243.61 105.34 243.61 105.34 258.07 102.21 258.07 102.21 253.25 99.05 253.25 99.05 248.43 95.9 248.43 95.9 243.61 92.75 243.61 92.75 248.43 89.6 248.43 89.6 253.25 86.45 253.25 86.45 258.07 83.3 258.07 83.3 262.89 80.14 262.89 80.14 267.79 76.99 267.79 76.99 272.61 80.14 272.61 80.14 277.43 83.3 277.43 83.3 282.25 92.76 282.25 92.76 277.43 86.45 277.43 86.45 272.61 89.6 272.61 89.6 267.79 92.75 267.79 92.75 262.97 95.9 262.97 95.9 267.79 99.05 267.79 99.05 272.61 102.21 272.61 102.21 277.43 105.36 277.43 105.37 287.04"/><polygon class="cls-8" points="105.37 267.76 102.21 267.76 102.21 262.94 105.36 262.94 105.37 267.76"/><polygon class="cls-8" points="70.67 253.3 68.81 253.3 68.81 248.48 70.7 248.48 70.67 253.3"/><polygon class="cls-8" points="76.98 243.66 73.81 243.66 73.81 238.79 70.66 238.79 70.66 233.97 68.81 233.97 68.81 226.26 70.7 226.26 70.7 229.15 73.81 229.15 73.81 233.97 76.96 233.97 76.98 243.66"/><rect class="cls-8" x="80.13" y="226.31" width="3.16" height="2.89"/><polygon class="cls-7" points="89.87 364.37 86.71 364.37 86.71 359.55 83.56 359.55 83.56 354.73 80.4 354.73 80.4 349.91 83.56 349.91 83.56 345.09 86.71 345.09 86.71 340.27 89.87 340.27 89.87 345.09 93.02 345.09 93.02 349.91 96.18 349.91 96.18 354.73 93.02 354.73 93.02 359.55 89.87 359.55 89.87 364.37"/></svg>