<svg id="Слой_1" data-name="Слой 1" xmlns="http://www.w3.org/2000/svg" viewBox="0 0 450 544.22"><defs><style>.cls-1{fill:#b0d4b2;}.cls-2{fill:#95c699;}.cls-3{fill:#cfe4d0;}.cls-4{fill:#efba44;}.cls-5{fill:#4b78ba;}.cls-6{fill:#d14a43;}.cls-7{fill:#fff;opacity:0.4;}</style></defs><title>colombia</title><path class="cls-1" d="M250.58,28a224.77,224.77,0,0,0-159.43,66c-88,88-88,225.15,3.38,330.07,84.49,97,156,148.13,156,148.13h0s71.52-51.11,156-148.13C498,319.22,498,182.1,410,94.06A224.32,224.32,0,0,0,250.58,28Z" transform="translate(-25.56 -28.04)"/><path class="cls-2" d="M250.58,28l0,544.22h0s71.52-51.11,156-148.13C498,319.22,498,182.1,410,94.06A224.32,224.32,0,0,0,250.58,28Z" transform="translate(-25.56 -28.04)"/><circle class="cls-3" cx="225" cy="224.08" r="206"/><path class="cls-1" d="M250.58,46.12l0,412h0c113.77,0,206-92.23,206-206S364.34,46.13,250.58,46.12Z" transform="translate(-25.56 -28.04)"/><path class="cls-4" d="M422.58,171.37a190.06,190.06,0,0,0-344,0Z" transform="translate(-25.56 -28.04)"/><circle class="cls-5" cx="225" cy="224.08" r="190"/><path class="cls-6" d="M422.58,332.87h-344a190.06,190.06,0,0,0,344,0Z" transform="translate(-25.56 -28.04)"/><path class="cls-4" d="M439.58,232.71c-9.72-95.82-90.64-170.59-189-170.59s-179.3,74.78-189,170.59Z" transform="translate(-25.56 -28.04)"/><path class="cls-7" d="M408.94,175.85c17.82,36.94-20.51,74.55-159.72,74.45C110.9,250.18,74.37,213,92,176.2a175.82,175.82,0,0,1,316.93-.35Z" transform="translate(-25.56 -28.04)"/></svg>