<svg id="Слой_1" data-name="Слой 1" xmlns="http://www.w3.org/2000/svg" viewBox="0 0 450 544.22"><defs><style>.cls-1{fill:#b0d4b2;}.cls-2{fill:#95c699;}.cls-3{fill:#cfe4d0;}.cls-4,.cls-7{fill:#fff;}.cls-5{fill:#d14a43;}.cls-6{fill:#4b78ba;}.cls-7{opacity:0.4;}</style></defs><title>czech</title><path class="cls-1" d="M249.87,27.85a224.76,224.76,0,0,0-159.43,66c-88,88-88,225.15,3.38,330.07,84.49,97,156,148.13,156,148.13h0s71.52-51.11,156-148.13c91.37-104.92,91.42-242,3.38-330.07A224.33,224.33,0,0,0,249.87,27.85Z" transform="translate(-24.85 -27.85)"/><path class="cls-2" d="M249.87,27.85l0,544.22h0s71.52-51.11,156-148.13c91.37-104.92,91.42-242,3.38-330.07A224.33,224.33,0,0,0,249.87,27.85Z" transform="translate(-24.85 -27.85)"/><circle class="cls-3" cx="225" cy="224.08" r="206"/><path class="cls-1" d="M249.87,45.93l0,412h0c113.77,0,206-92.23,206-206S363.63,45.94,249.87,45.93Z" transform="translate(-24.85 -27.85)"/><circle class="cls-4" cx="225" cy="224.08" r="190"/><circle class="cls-4" cx="225" cy="224.08" r="190"/><path class="cls-5" d="M59.85,251.92c0,104.94,85.07,190,190,190s190-85.06,190-190h-380Z" transform="translate(-24.85 -27.85)"/><path class="cls-6" d="M115.5,386.28,249.84,251.93,115.49,117.59C41.3,191.79,41.3,312.08,115.5,386.28Z" transform="translate(-24.85 -27.85)"/><path class="cls-7" d="M408.23,175.66c17.82,36.94-20.51,74.55-159.72,74.45C110.2,250,73.67,212.76,91.3,176a175.82,175.82,0,0,1,316.93-.35Z" transform="translate(-24.85 -27.85)"/></svg>