<svg id="Слой_1" data-name="Слой 1" xmlns="http://www.w3.org/2000/svg" viewBox="0 0 600 600"><defs><style>.cls-1{fill:#fff;}.cls-2{fill:#565699;}.cls-3{fill:#c64c46;}</style></defs><title>britain</title><rect class="cls-1" width="600" height="600"/><rect class="cls-2" x="471.21" y="239.35" width="423.58" height="291.3" transform="translate(-384.01 -83.21) rotate(-0.15)"/><polygon class="cls-1" points="322.36 293.19 297.89 327.44 87.88 177.36 87.83 154.91 128.7 154.81 322.36 293.19"/><polygon class="cls-3" points="311.84 305.22 302.31 318.55 87.85 165.28 87.83 154.91 101.45 154.88 311.84 305.22"/><polygon class="cls-1" points="512.13 429.44 512.17 445.1 461.84 445.22 277.33 313.38 301.8 279.13 512.13 429.44"/><polygon class="cls-3" points="512.16 439.13 512.17 445.1 492.42 445.14 288.56 299.46 298.08 286.14 512.16 439.13"/><polygon class="cls-1" points="302.33 280.46 325.33 315.7 125.52 446.11 88.59 446.2 88.52 420 302.33 280.46"/><polygon class="cls-3" points="309.7 294.63 318.65 308.34 107.51 446.16 88.59 446.2 88.57 438.96 309.7 294.63"/><polygon class="cls-1" points="497.23 153.84 511.41 153.8 511.51 194.77 304.74 329.73 281.74 294.49 497.23 153.84"/><polygon class="cls-3" points="511.41 153.8 511.46 173.51 295.87 314.23 286.93 300.52 511.41 153.8"/><polygon class="cls-1" points="511.7 266.93 338.38 266.73 338.14 154.25 261.36 154.45 261.45 266.94 88.13 267.21 88.31 336.31 261.7 336.1 261.92 445.75 338.84 445.54 338.99 336.13 511.88 335.68 511.7 266.93"/><polygon class="cls-3" points="277.9 445.71 277.3 322.83 88.27 323.39 88.15 277.85 277.18 277.29 276.68 154.41 322.09 154.3 322.71 277.18 511.73 278.57 511.85 322.53 322.83 322.7 323.04 445.59 277.9 445.71"/></svg>