<svg id="Слой_1" data-name="Слой 1" xmlns="http://www.w3.org/2000/svg" viewBox="0 0 450 544.22"><defs><style>.cls-1{fill:#b0d4b2;}.cls-2{fill:#95c699;}.cls-3{fill:#cfe4d0;}.cls-4{fill:#4b78ba;}.cls-5,.cls-7{fill:#fff;}.cls-6{fill:#d14a43;}.cls-7{opacity:0.4;}</style></defs><title>english</title><path class="cls-1" d="M249.66,28.21a224.76,224.76,0,0,0-159.43,66c-88,88-88,225.15,3.38,330.07,84.49,97,156,148.13,156,148.13h0s71.52-51.11,156-148.13c91.37-104.92,91.42-242,3.38-330.07A224.33,224.33,0,0,0,249.66,28.21Z" transform="translate(-24.64 -28.21)"/><path class="cls-2" d="M249.66,28.21l0,544.22h0s71.52-51.11,156-148.13c91.37-104.92,91.42-242,3.38-330.07A224.33,224.33,0,0,0,249.66,28.21Z" transform="translate(-24.64 -28.21)"/><circle class="cls-3" cx="225" cy="224.08" r="206"/><path class="cls-1" d="M249.66,46.28l0,412h0c113.77,0,206-92.23,206-206S363.42,46.29,249.66,46.28Z" transform="translate(-24.64 -28.21)"/><circle class="cls-4" cx="225" cy="224.08" r="190"/><path class="cls-5" d="M95.12,141.72,359.88,407a191.08,191.08,0,0,0,41.66-40.62L135.82,100.14A191.09,191.09,0,0,0,95.12,141.72Z" transform="translate(-24.64 -28.21)"/><path class="cls-6" d="M287.61,266.47l.57,26.16,94.9,94.9q6.45-6.36,12.28-13.32Z" transform="translate(-24.64 -28.21)"/><path class="cls-6" d="M101.05,133.88,208.67,242l.84-24.76-96.49-97Q106.72,126.78,101.05,133.88Z" transform="translate(-24.64 -28.21)"/><path class="cls-5" d="M362.95,99.76,97,365.49a191.09,191.09,0,0,0,41.38,40.84L403.76,141.16A191.07,191.07,0,0,0,362.95,99.76Z" transform="translate(-24.64 -28.21)"/><path class="cls-6" d="M130.58,400.34l79.89-79.74.21-25.81L117,388.31Q123.5,394.64,130.58,400.34Z" transform="translate(-24.64 -28.21)"/><path class="cls-6" d="M370.73,105.87l-85.51,85.51,3,22.64,96-96Q377.73,111.66,370.73,105.87Z" transform="translate(-24.64 -28.21)"/><path class="cls-5" d="M59.64,252.28A190.26,190.26,0,0,0,66,301H433.33a191.14,191.14,0,0,0,1.22-92.51H64.73A190.53,190.53,0,0,0,59.64,252.28Z" transform="translate(-24.64 -28.21)"/><path class="cls-5" d="M202.49,436.38a191.2,191.2,0,0,0,92.51.44V67.75a191.2,191.2,0,0,0-92.51.44Z" transform="translate(-24.64 -28.21)"/><path class="cls-6" d="M217.22,439.52a191.21,191.21,0,0,0,63.06.3V64.75a191.25,191.25,0,0,0-63.06.3Z" transform="translate(-24.64 -28.21)"/><path class="cls-6" d="M59.64,252.28a191.18,191.18,0,0,0,3,34H436.61a191.93,191.93,0,0,0,.82-63.06H61.86A191.44,191.44,0,0,0,59.64,252.28Z" transform="translate(-24.64 -28.21)"/><path class="cls-7" d="M408,176c17.82,36.94-20.51,74.56-159.72,74.45C110,250.35,73.46,213.12,91.09,176.36A175.82,175.82,0,0,1,408,176Z" transform="translate(-24.64 -28.21)"/></svg>