<svg id="Слой_1" data-name="Слой 1" xmlns="http://www.w3.org/2000/svg" viewBox="0 0 450 544.22"><defs><style>.cls-1{fill:#b0d4b2;}.cls-2{fill:#95c699;}.cls-3{fill:#cfe4d0;}.cls-4,.cls-7{fill:#fff;}.cls-5{fill:#4b78ba;}.cls-6{fill:#d14a43;}.cls-7{opacity:0.4;}</style></defs><title>france</title><path class="cls-1" d="M249.59,28.21a224.76,224.76,0,0,0-159.43,66c-88,88-88,225.15,3.38,330.07,84.49,97,156,148.13,156,148.13h0s71.52-51.11,156-148.13C497,319.38,497,182.26,409,94.23A224.32,224.32,0,0,0,249.59,28.21Z" transform="translate(-24.57 -28.21)"/><path class="cls-2" d="M249.59,28.21l0,544.22h0s71.52-51.11,156-148.13C497,319.38,497,182.26,409,94.23A224.32,224.32,0,0,0,249.59,28.21Z" transform="translate(-24.57 -28.21)"/><circle class="cls-3" cx="225" cy="224.08" r="206"/><path class="cls-1" d="M249.59,46.28l0,412h0c113.77,0,206-92.23,206-206S363.35,46.29,249.59,46.28Z" transform="translate(-24.57 -28.21)"/><circle class="cls-4" cx="225" cy="224.08" r="190"/><path class="cls-5" d="M168.82,80.26a190.06,190.06,0,0,0,0,344Z" transform="translate(-24.57 -28.21)"/><path class="cls-6" d="M330.32,80.26v344a190.05,190.05,0,0,0,0-344Z" transform="translate(-24.57 -28.21)"/><path class="cls-7" d="M408,176c17.82,36.94-20.51,74.56-159.72,74.45C109.92,250.35,73.39,213.12,91,176.36A175.82,175.82,0,0,1,408,176Z" transform="translate(-24.57 -28.21)"/></svg>