<svg id="Слой_1" data-name="Слой 1" xmlns="http://www.w3.org/2000/svg" viewBox="0 0 450 544.22"><defs><style>.cls-1{fill:#b0d4b2;}.cls-2{fill:#95c699;}.cls-3{fill:#cfe4d0;}.cls-4{fill:#d14a43;}.cls-5{fill:#121200;}.cls-6{fill:#efba44;}.cls-7{fill:#fff;opacity:0.4;}</style></defs><title>german</title><path class="cls-1" d="M250.4,28.1A224.76,224.76,0,0,0,91,94.12c-88,88-88,225.15,3.38,330.07,84.49,97,156,148.13,156,148.13h0s71.52-51.11,156-148.13c91.37-104.92,91.42-242,3.38-330.07A224.33,224.33,0,0,0,250.4,28.1Z" transform="translate(-25.38 -28.1)"/><path class="cls-2" d="M250.4,28.1l0,544.22h0s71.52-51.11,156-148.13c91.37-104.92,91.42-242,3.38-330.07A224.33,224.33,0,0,0,250.4,28.1Z" transform="translate(-25.38 -28.1)"/><circle class="cls-3" cx="225" cy="224.08" r="206"/><path class="cls-1" d="M250.39,46.17l0,412h0c113.77,0,206-92.23,206-206S364.16,46.18,250.39,46.17Z" transform="translate(-25.38 -28.1)"/><circle class="cls-4" cx="225" cy="224.08" r="190"/><path class="cls-5" d="M422.4,171.42a190.06,190.06,0,0,0-344,0Z" transform="translate(-25.38 -28.1)"/><path class="cls-6" d="M422.4,332.92h-344a190.06,190.06,0,0,0,344,0Z" transform="translate(-25.38 -28.1)"/><path class="cls-7" d="M408.76,175.9c17.82,36.94-20.51,74.55-159.72,74.45C110.73,250.24,74.19,213,91.83,176.25a175.82,175.82,0,0,1,316.93-.35Z" transform="translate(-25.38 -28.1)"/></svg>