<svg id="Слой_1" data-name="Слой 1" xmlns="http://www.w3.org/2000/svg" viewBox="0 0 450 544.22"><defs><style>.cls-1{fill:#b0d4b2;}.cls-2{fill:#95c699;}.cls-3{fill:#cfe4d0;}.cls-4,.cls-7{fill:#fff;}.cls-5{fill:#5a8e4a;}.cls-6{fill:#d14a43;}.cls-7{opacity:0.4;}</style></defs><title>italy</title><path class="cls-1" d="M250.34,28A224.76,224.76,0,0,0,90.91,94c-88,88-88,225.15,3.38,330.07,84.49,97,156,148.13,156,148.13h0s71.52-51.11,156-148.13c91.37-104.91,91.42-242,3.38-330.07A224.32,224.32,0,0,0,250.34,28Z" transform="translate(-25.32 -28.02)"/><path class="cls-2" d="M250.34,28l0,544.22h0s71.52-51.11,156-148.13c91.37-104.91,91.42-242,3.38-330.07A224.32,224.32,0,0,0,250.34,28Z" transform="translate(-25.32 -28.02)"/><circle class="cls-3" cx="225" cy="224.08" r="206"/><path class="cls-1" d="M250.34,46.09l0,412h0c113.77,0,206-92.23,206-206S364.1,46.1,250.34,46.09Z" transform="translate(-25.32 -28.02)"/><circle class="cls-4" cx="225" cy="224.08" r="190"/><path class="cls-5" d="M169.57,80.07a190.06,190.06,0,0,0,0,344Z" transform="translate(-25.32 -28.02)"/><path class="cls-6" d="M331.07,80.07v344a190.06,190.06,0,0,0,0-344Z" transform="translate(-25.32 -28.02)"/><path class="cls-7" d="M408.7,175.82c17.82,36.94-20.51,74.55-159.72,74.45-138.31-.11-174.85-37.34-157.21-74.1a175.82,175.82,0,0,1,316.93-.35Z" transform="translate(-25.32 -28.02)"/></svg>