<svg id="Слой_1" data-name="Слой 1" xmlns="http://www.w3.org/2000/svg" viewBox="0 0 450 544.22"><defs><style>.cls-1{fill:#b0d4b2;}.cls-2{fill:#95c699;}.cls-3{fill:#cfe4d0;}.cls-4{fill:#88bd5c;}.cls-5{fill:#ebcf47;}.cls-6{fill:#121200;}.cls-7{fill:#fff;opacity:0.4;}</style></defs><title>jamaica</title><path class="cls-1" d="M250.1,28.29a224.76,224.76,0,0,0-159.43,66c-88,88-88,225.15,3.38,330.07,84.49,97,156,148.13,156,148.13h0s71.52-51.11,156-148.13c91.37-104.91,91.41-242,3.38-330.07A224.32,224.32,0,0,0,250.1,28.29Z" transform="translate(-25.07 -28.29)"/><path class="cls-2" d="M250.1,28.29l0,544.22h0s71.52-51.11,156-148.13c91.37-104.91,91.41-242,3.38-330.07A224.32,224.32,0,0,0,250.1,28.29Z" transform="translate(-25.07 -28.29)"/><circle class="cls-3" cx="225" cy="224.08" r="206"/><path class="cls-1" d="M250.09,46.37l0,412h0c113.77,0,206-92.23,206-206S363.86,46.38,250.09,46.37Z" transform="translate(-25.07 -28.29)"/><circle class="cls-4" cx="225" cy="224.08" r="190"/><path class="cls-5" d="M281.84,251.83,403.07,139.7a191.16,191.16,0,0,0-28.91-31.22L250.65,222.92l-124-115a191.07,191.07,0,0,0-29.08,31.13l121.9,112.76L97.17,365.15a191.11,191.11,0,0,0,28.68,31L250.62,280.71,374.87,395.63a191.11,191.11,0,0,0,28.58-31.12Z" transform="translate(-25.07 -28.29)"/><path class="cls-6" d="M97.53,139.09a190,190,0,0,0-.36,226.06l122.26-113.3Z" transform="translate(-25.07 -28.29)"/><path class="cls-6" d="M403.07,139.7,281.84,251.83l121.6,112.69a190,190,0,0,0-.38-224.82Z" transform="translate(-25.07 -28.29)"/><path class="cls-7" d="M408.46,176.1C426.28,213,388,250.65,248.74,250.54c-138.31-.11-174.85-37.34-157.21-74.1a175.82,175.82,0,0,1,316.93-.35Z" transform="translate(-25.07 -28.29)"/></svg>