<svg id="Слой_1" data-name="Слой 1" xmlns="http://www.w3.org/2000/svg" viewBox="0 0 450 544.22"><defs><style>.cls-1{fill:#b0d4b2;}.cls-2{fill:#95c699;}.cls-3{fill:#cfe4d0;}.cls-4{fill:#3f6b33;}.cls-5{fill:#d14a43;}.cls-6{fill:#f3c85a;}.cls-6,.cls-7,.cls-8,.cls-9{fill-rule:evenodd;}.cls-7{fill:#b9443b;}.cls-10,.cls-8{fill:#fff;}.cls-9{fill:#5781b6;}.cls-10{opacity:0.4;}</style></defs><title>portugal</title><path class="cls-1" d="M250.21,28.21a224.76,224.76,0,0,0-159.43,66c-88,88-88,225.15,3.38,330.07,84.49,97,156,148.13,156,148.13h0s71.52-51.11,156-148.13c91.37-104.92,91.42-242,3.38-330.07A224.32,224.32,0,0,0,250.21,28.21Z" transform="translate(-25.19 -28.21)"/><path class="cls-2" d="M250.21,28.21l0,544.22h0s71.52-51.11,156-148.13c91.37-104.92,91.42-242,3.38-330.07A224.32,224.32,0,0,0,250.21,28.21Z" transform="translate(-25.19 -28.21)"/><circle class="cls-3" cx="225" cy="224.08" r="206"/><path class="cls-1" d="M250.21,46.28l0,412h0c113.77,0,206-92.23,206-206S364,46.29,250.21,46.28Z" transform="translate(-25.19 -28.21)"/><circle class="cls-4" cx="225" cy="224.08" r="190"/><path class="cls-5" d="M250.19,62.28a190.38,190.38,0,0,0-45.6,5.52v369a190.41,190.41,0,0,0,45.6,5.52c104.93,0,190-85.06,190-190S355.12,62.28,250.19,62.28Z" transform="translate(-25.19 -28.21)"/><path class="cls-6" d="M204.14,179.56a75.14,75.14,0,1,0,75.14,75.14A75.14,75.14,0,0,0,204.14,179.56Zm0,142A66.86,66.86,0,1,1,271,254.7,66.86,66.86,0,0,1,204.14,321.56Z" transform="translate(-25.19 -28.21)"/><path class="cls-6" d="M269.65,217.93l-60.77-19.11V179.73c-1.57-.1-3.15-.16-4.75-.16s-3.24.07-4.84.17v30.75l-26.72,15.25-26-19.36a75.3,75.3,0,0,0-7.27,10.29l15.54,19.17-25.76,14.71c-.07,1.38-.12,2.76-.12,4.15a75.83,75.83,0,0,0,.64,9.65l41.27,8.86-28.6,21.48-1.89-.19a75.4,75.4,0,0,0,7.84,10.41l51,5.06v19.69c1.6.1,3.22.17,4.84.17s3.18-.07,4.75-.16V310.93l40.2,4a75.62,75.62,0,0,0,9.7-8.67l-3.06-.3-18.08-18.08L276.2,276a74.78,74.78,0,0,0,2.69-13.67L233,247.85l43.51-13.43A74.61,74.61,0,0,0,269.65,217.93Zm-97.78,19.25,6,4.47,10.06,10.06-1.13.35,2.31,7.47-1.68,1.26-18-22.22Zm-8.39-6.25-.17.1-.46-.56Zm-25.26,25.46,22.77-13L178.54,265Zm61.06,44-1.57-.16,1.57-.48Zm0-10.68-12.48,3.85,1.78,5.76-32.18-3.19,26.91-20.21,4.84,1,7.86,9.7,3.26-2.64Zm0-20.17-5.81-1.25h0l5.81-4.36Zm0-32.23-16.94-5.33-.15.48-.72-.72,17.81-10.17Zm9.59,44.1,10.2,2.19-10.2,3.15Zm31.78,23.08-31.78-3.15v-4.55l18.4-5.68Zm26.59-35.76L230,280.19l-.26-.26.8-3.73L224.74,275l-7.89-7.89,4-5.35-9.37-7,.57-.43,4.79-1.48Zm-47-27-2.68-3.57L213,241.58l-4.14-1.3V216.05l6.44-3.68-1-1.8,53,16.65Z" transform="translate(-25.19 -28.21)"/><path class="cls-7" d="M249.11,265.29a45,45,0,0,1-89.95,0V206.44h89.95v58.85Z" transform="translate(-25.19 -28.21)"/><path class="cls-8" d="M231.66,264.22a27.52,27.52,0,0,1-55,0V225.33h55v38.89Z" transform="translate(-25.19 -28.21)"/><path class="cls-9" d="M192,268.38a2.78,2.78,0,0,0,2.79-2.8v-17.1h-15v17.1a2.78,2.78,0,0,0,2.79,2.8Z" transform="translate(-25.19 -28.21)"/><path class="cls-9" d="M216.25,268.38a2.81,2.81,0,0,1-2.9-2.8v-17.1h15.12v17.1a2.87,2.87,0,0,1-2.9,2.8Z" transform="translate(-25.19 -28.21)"/><path class="cls-9" d="M208.69,268.38a2.81,2.81,0,0,0,2.9-2.8v-17.1H196.47v17.1a2.81,2.81,0,0,0,2.9,2.8Z" transform="translate(-25.19 -28.21)"/><path class="cls-9" d="M208.69,289.63a2.81,2.81,0,0,0,2.9-2.8v-17.1H196.47v17.1a2.81,2.81,0,0,0,2.9,2.8Z" transform="translate(-25.19 -28.21)"/><path class="cls-9" d="M208.69,247.14a2.81,2.81,0,0,0,2.9-2.8v-17.1H196.47v17.1a2.81,2.81,0,0,0,2.9,2.8Z" transform="translate(-25.19 -28.21)"/><path class="cls-6" d="M200.82,233.25a1.86,1.86,0,1,1,1.86-1.86,1.85,1.85,0,0,1-1.86,1.86Z" transform="translate(-25.19 -28.21)"/><path class="cls-6" d="M207.24,233.25a1.86,1.86,0,1,0,0-3.73,1.87,1.87,0,0,0,0,3.73Z" transform="translate(-25.19 -28.21)"/><path class="cls-6" d="M204,239.06a1.87,1.87,0,1,1,1.86-1.87,1.86,1.86,0,0,1-1.86,1.87Z" transform="translate(-25.19 -28.21)"/><path class="cls-6" d="M184,254.5a1.87,1.87,0,0,1,0-3.73,1.87,1.87,0,0,1,0,3.73Z" transform="translate(-25.19 -28.21)"/><path class="cls-6" d="M190.57,254.5a1.87,1.87,0,0,0,0-3.73,1.87,1.87,0,0,0,0,3.73Z" transform="translate(-25.19 -28.21)"/><path class="cls-6" d="M184,262.47a1.81,1.81,0,0,0-1.76,1.76A1.84,1.84,0,0,0,184,266.1a1.86,1.86,0,0,0,1.86-1.87,1.84,1.84,0,0,0-1.86-1.76Z" transform="translate(-25.19 -28.21)"/><path class="cls-6" d="M190.57,262.47a1.82,1.82,0,0,1,1.76,1.76,1.81,1.81,0,1,1-1.76-1.76Z" transform="translate(-25.19 -28.21)"/><path class="cls-6" d="M187.36,260.3a1.87,1.87,0,0,1,0-3.73,1.87,1.87,0,0,1,0,3.73Z" transform="translate(-25.19 -28.21)"/><path class="cls-6" d="M224.12,254.5a1.87,1.87,0,1,0-1.86-1.87,1.86,1.86,0,0,0,1.86,1.87Z" transform="translate(-25.19 -28.21)"/><path class="cls-6" d="M217.7,254.5a1.87,1.87,0,1,1,1.76-1.87,1.84,1.84,0,0,1-1.76,1.87Z" transform="translate(-25.19 -28.21)"/><path class="cls-6" d="M224.12,262.47a1.84,1.84,0,0,1,1.86,1.76,1.86,1.86,0,1,1-3.73,0,1.84,1.84,0,0,1,1.86-1.76Z" transform="translate(-25.19 -28.21)"/><path class="cls-6" d="M217.7,262.47a1.84,1.84,0,0,0-1.86,1.76,1.86,1.86,0,0,0,1.86,1.87,1.84,1.84,0,0,0,1.76-1.87,1.81,1.81,0,0,0-1.76-1.76Z" transform="translate(-25.19 -28.21)"/><path class="cls-6" d="M220.91,260.3a1.87,1.87,0,0,0,0-3.73,1.87,1.87,0,0,0,0,3.73Z" transform="translate(-25.19 -28.21)"/><path class="cls-6" d="M200.82,254.5a1.87,1.87,0,1,1,1.86-1.87,1.85,1.85,0,0,1-1.86,1.87Z" transform="translate(-25.19 -28.21)"/><path class="cls-6" d="M207.24,254.5a1.87,1.87,0,1,0,0-3.73,1.87,1.87,0,0,0,0,3.73Z" transform="translate(-25.19 -28.21)"/><path class="cls-6" d="M200.82,262.47a1.84,1.84,0,0,0-1.86,1.76,1.87,1.87,0,1,0,1.86-1.76Z" transform="translate(-25.19 -28.21)"/><path class="cls-6" d="M207.24,262.47a1.84,1.84,0,0,1,1.87,1.76,1.86,1.86,0,0,1-1.87,1.87,1.77,1.77,0,0,1-1.76-1.87,1.75,1.75,0,0,1,1.76-1.76Z" transform="translate(-25.19 -28.21)"/><path class="cls-6" d="M204,260.3a1.87,1.87,0,1,1,1.86-1.87A1.86,1.86,0,0,1,204,260.3Z" transform="translate(-25.19 -28.21)"/><path class="cls-6" d="M200.82,275.74a1.87,1.87,0,1,1,1.86-1.87,1.86,1.86,0,0,1-1.86,1.87Z" transform="translate(-25.19 -28.21)"/><path class="cls-6" d="M207.24,275.74a1.87,1.87,0,0,0,0-3.73,1.87,1.87,0,0,0,0,3.73Z" transform="translate(-25.19 -28.21)"/><path class="cls-6" d="M200.82,283.72a1.84,1.84,0,0,0-1.86,1.76,1.87,1.87,0,1,0,1.86-1.76Z" transform="translate(-25.19 -28.21)"/><path class="cls-6" d="M207.24,283.72a1.84,1.84,0,0,1,1.87,1.76,1.86,1.86,0,0,1-1.87,1.87,1.77,1.77,0,0,1-1.76-1.87,1.74,1.74,0,0,1,1.76-1.76Z" transform="translate(-25.19 -28.21)"/><path class="cls-6" d="M204,281.54a1.87,1.87,0,1,1,1.86-1.87,1.86,1.86,0,0,1-1.86,1.87Z" transform="translate(-25.19 -28.21)"/><path class="cls-6" d="M200.82,241.23a1.82,1.82,0,1,0,0,3.63,1.82,1.82,0,1,0,0-3.63Z" transform="translate(-25.19 -28.21)"/><path class="cls-6" d="M207.24,241.23a1.82,1.82,0,1,1,0,3.63,1.77,1.77,0,0,1-1.76-1.87,1.75,1.75,0,0,1,1.76-1.76Z" transform="translate(-25.19 -28.21)"/><polygon class="cls-6" points="174.24 187.69 172.05 194.74 185.84 194.74 183.76 187.69 183.36 187.69 183.36 182.93 184.15 182.93 184.55 180.62 182.87 180.62 182.87 181.88 182.17 181.88 182.17 180.62 180.49 180.62 180.49 181.88 179.89 181.88 179.89 180.62 178.11 180.62 178.11 181.88 177.51 181.88 177.51 180.62 175.72 180.62 175.72 181.88 175.13 181.88 175.13 180.62 173.44 180.62 173.84 182.93 174.63 182.93 174.63 187.69 174.24 187.69"/><polygon class="cls-6" points="138.1 187.69 135.91 194.74 149.7 194.74 147.62 187.69 147.22 187.69 147.22 182.93 148.01 182.93 148.41 180.62 146.72 180.62 146.72 181.88 146.03 181.88 146.03 180.62 144.34 180.62 144.34 181.88 143.75 181.88 143.75 180.62 141.96 180.62 141.96 181.88 141.37 181.88 141.37 180.62 139.58 180.62 139.58 181.88 138.99 181.88 138.99 180.62 137.3 180.62 137.7 182.93 138.49 182.93 138.49 187.69 138.1 187.69"/><polygon class="cls-6" points="210.38 187.69 208.2 194.74 221.98 194.74 219.9 187.69 219.5 187.69 219.5 182.93 220.3 182.93 220.69 180.62 219.01 180.62 219.01 181.88 218.31 181.88 218.31 180.62 216.63 180.62 216.63 181.88 216.03 181.88 216.03 180.62 214.25 180.62 214.25 181.88 213.65 181.88 213.65 180.62 211.87 180.62 211.87 181.88 211.27 181.88 211.27 180.62 209.59 180.62 209.98 182.93 210.78 182.93 210.78 187.69 210.38 187.69"/><polygon class="cls-6" points="138.1 227.97 135.91 235.02 149.7 235.02 147.62 227.97 147.22 227.97 147.22 223.21 148.01 223.21 148.41 220.89 146.72 220.89 146.72 222.16 146.03 222.16 146.03 220.89 144.34 220.89 144.34 222.16 143.75 222.16 143.75 220.89 141.96 220.89 141.96 222.16 141.37 222.16 141.37 220.89 139.58 220.89 139.58 222.16 138.99 222.16 138.99 220.89 137.3 220.89 137.7 223.21 138.49 223.21 138.49 227.97 138.1 227.97"/><polygon class="cls-6" points="210.38 227.97 208.2 235.02 221.98 235.02 219.9 227.97 219.5 227.97 219.5 223.21 220.3 223.21 220.69 220.89 219.01 220.89 219.01 222.16 218.31 222.16 218.31 220.89 216.63 220.89 216.63 222.16 216.03 222.16 216.03 220.89 214.25 220.89 214.25 222.16 213.65 222.16 213.65 220.89 211.87 220.89 211.87 222.16 211.27 222.16 211.27 220.89 209.59 220.89 209.98 223.21 210.78 223.21 210.78 227.97 210.38 227.97"/><polygon class="cls-6" points="151.2 265.75 154.6 272.31 164.41 262.63 157.98 259.07 157.7 259.35 154.36 255.96 154.92 255.4 153.58 253.48 152.38 254.66 153.26 255.56 152.77 256.05 151.88 255.15 150.68 256.33 151.57 257.23 151.15 257.65 150.26 256.75 148.99 258 149.88 258.9 149.45 259.32 148.56 258.42 147.29 259.67 148.18 260.57 147.75 260.99 146.87 260.09 145.67 261.27 147.58 262.64 148.14 262.09 151.49 265.48 151.2 265.75"/><polygon class="cls-6" points="199.95 259.05 193.4 262.45 203.07 272.26 206.63 265.83 206.35 265.55 209.74 262.21 210.3 262.77 212.22 261.43 211.04 260.23 210.14 261.12 209.66 260.62 210.55 259.73 209.37 258.53 208.47 259.42 208.05 259 208.95 258.11 207.7 256.84 206.8 257.73 206.38 257.3 207.28 256.42 206.03 255.15 205.13 256.03 204.71 255.61 205.61 254.72 204.43 253.52 203.06 255.43 203.61 255.99 200.22 259.34 199.95 259.05"/><path class="cls-10" d="M408.57,176c17.82,36.94-20.51,74.56-159.72,74.45C110.54,250.35,74,213.12,91.64,176.36A175.82,175.82,0,0,1,408.57,176Z" transform="translate(-25.19 -28.21)"/></svg>