<svg id="Слой_1" data-name="Слой 1" xmlns="http://www.w3.org/2000/svg" viewBox="0 0 450 544.22"><defs><style>.cls-1{fill:#b0d4b2;}.cls-2{fill:#95c699;}.cls-3{fill:#cfe4d0;}.cls-4{fill:#4b78ba;}.cls-5,.cls-7{fill:#fff;}.cls-6{fill:#d14a43;}.cls-7{opacity:0.4;}</style></defs><title>russia</title><path class="cls-1" d="M249.88,29.24a224.76,224.76,0,0,0-159.43,66c-88,88-88,225.15,3.38,330.07,84.49,97,156,148.13,156,148.13h0s71.52-51.11,156-148.13c91.37-104.92,91.42-242,3.38-330.07A224.32,224.32,0,0,0,249.88,29.24Z" transform="translate(-24.86 -29.24)"/><path class="cls-2" d="M249.88,29.24l0,544.22h0s71.52-51.11,156-148.13c91.37-104.92,91.42-242,3.38-330.07A224.32,224.32,0,0,0,249.88,29.24Z" transform="translate(-24.86 -29.24)"/><circle class="cls-3" cx="225" cy="224.08" r="206"/><path class="cls-1" d="M249.88,47.32l0,412h0c113.77,0,206-92.23,206-206S363.64,47.33,249.88,47.32Z" transform="translate(-24.86 -29.24)"/><circle class="cls-4" cx="225" cy="224.08" r="190"/><path class="cls-5" d="M421.88,172.57a190.06,190.06,0,0,0-344,0Z" transform="translate(-24.86 -29.24)"/><path class="cls-6" d="M421.88,334.07h-344a190.06,190.06,0,0,0,344,0Z" transform="translate(-24.86 -29.24)"/><path class="cls-7" d="M408.24,177C426.06,214,387.73,251.6,248.52,251.5c-138.31-.11-174.85-37.34-157.21-74.1A175.82,175.82,0,0,1,408.24,177Z" transform="translate(-24.86 -29.24)"/></svg>